<svg width="18" height="16" viewBox="0 0 18 16" fill="none" xmlns="http://www.w3.org/2000/svg">
<path d="M15.8183 5.93164C14.7198 5.93164 14.1061 7.02255 14.3561 7.83316L11.6667 10.5301C11.4395 10.4619 11.1061 10.4619 10.8789 10.5301L8.94705 8.59831C9.20463 7.7877 8.59099 6.68922 7.48493 6.68922C6.38645 6.68922 5.76523 7.78013 6.02281 8.59831L2.56826 12.0453C1.75766 11.7953 0.666748 12.4089 0.666748 13.5074C0.666748 14.3407 1.34857 15.0225 2.1819 15.0225C3.28038 15.0225 3.89402 13.9316 3.64402 13.121L7.09099 9.66649C7.31826 9.73467 7.6516 9.73467 7.87887 9.66649L9.81069 11.5983C9.55311 12.4089 10.1667 13.5074 11.2728 13.5074C12.3713 13.5074 12.9925 12.4165 12.7349 11.5983L15.4319 8.90891C16.2425 9.15891 17.3334 8.54528 17.3334 7.44679C17.3334 6.61346 16.6516 5.93164 15.8183 5.93164Z" fill="#1B72C0" stroke="#1B72C0"/>
<path d="M11.2727 6.68901L11.9848 5.12083L13.5455 4.41628L11.9848 3.71174L11.2727 2.14355L10.5758 3.71174L9 4.41628L10.5758 5.12083L11.2727 6.68901Z" fill="#1B72C0" stroke="#1B72C0"/>
<path d="M2.56069 8.20389L2.93948 6.68874L4.45463 6.30996L2.93948 5.93117L2.56069 4.41602L2.1819 5.93117L0.666748 6.30996L2.1819 6.68874L2.56069 8.20389Z" fill="#1B72C0" stroke="#1B72C0"/>
</svg>
