<svg width="44" height="44" viewBox="0 0 44 44" fill="none" xmlns="http://www.w3.org/2000/svg">
<g filter="url(#filter0_b_3770_3583)">
<rect width="44" height="44" rx="22" fill="#001C38" fill-opacity="0.65"/>
<mask id="mask0_3770_3583" style="mask-type:alpha" maskUnits="userSpaceOnUse" x="10" y="10" width="24" height="24">
<rect x="10" y="10" width="24" height="24" fill="#D9D9D9"/>
</mask>
<g mask="url(#mask0_3770_3583)">
<path d="M20.875 29.2996L14.275 22.6996C14.175 22.5996 14.104 22.4913 14.062 22.3746C14.0207 22.2579 14 22.1329 14 21.9996C14 21.8663 14.0207 21.7413 14.062 21.6246C14.104 21.5079 14.175 21.3996 14.275 21.2996L20.875 14.6996C21.0583 14.5163 21.2873 14.4203 21.562 14.4116C21.8373 14.4036 22.075 14.4996 22.275 14.6996C22.475 14.8829 22.5793 15.1119 22.588 15.3866C22.596 15.6619 22.5 15.8996 22.3 16.0996L17.4 20.9996H28.575C28.8583 20.9996 29.096 21.0953 29.288 21.2866C29.4793 21.4786 29.575 21.7163 29.575 21.9996C29.575 22.2829 29.4793 22.5203 29.288 22.7116C29.096 22.9036 28.8583 22.9996 28.575 22.9996H17.4L22.3 27.8996C22.4833 28.0829 22.5793 28.3163 22.588 28.5996C22.596 28.8829 22.5 29.1163 22.3 29.2996C22.1167 29.4996 21.8833 29.5996 21.6 29.5996C21.3167 29.5996 21.075 29.4996 20.875 29.2996Z" fill="white"/>
</g>
</g>
<defs>
<filter id="filter0_b_3770_3583" x="-12" y="-12" width="68" height="68" filterUnits="userSpaceOnUse" color-interpolation-filters="sRGB">
<feFlood flood-opacity="0" result="BackgroundImageFix"/>
<feGaussianBlur in="BackgroundImageFix" stdDeviation="6"/>
<feComposite in2="SourceAlpha" operator="in" result="effect1_backgroundBlur_3770_3583"/>
<feBlend mode="normal" in="SourceGraphic" in2="effect1_backgroundBlur_3770_3583" result="shape"/>
</filter>
</defs>
</svg>
