<svg width="20" height="19" viewBox="0 0 20 19" fill="none" xmlns="http://www.w3.org/2000/svg">
<path fill-rule="evenodd" clip-rule="evenodd" d="M0.833252 9.49967C0.833252 4.43717 4.93742 0.333008 9.99992 0.333008C15.0624 0.333008 19.1666 4.43717 19.1666 9.49967C19.1666 14.5622 15.0624 18.6663 9.99992 18.6663C4.93742 18.6663 0.833252 14.5622 0.833252 9.49967ZM14.9842 6.79591C14.9871 6.95782 14.927 7.11453 14.8166 7.23301L8.98325 12.6497C8.86606 12.7667 8.70721 12.8325 8.54158 12.8325C8.37596 12.8325 8.21711 12.7667 8.09992 12.6497L5.18325 9.73301C5.07285 9.61453 5.01275 9.45782 5.01561 9.29591C5.01846 9.13399 5.08406 8.9795 5.19857 8.86499C5.31308 8.75048 5.46757 8.68489 5.62948 8.68203C5.7914 8.67917 5.94811 8.73927 6.06659 8.84967L8.54158 11.3247L13.9333 6.34967C14.0517 6.23927 14.2084 6.17917 14.3704 6.18203C14.5323 6.18489 14.6868 6.25048 14.8013 6.36499C14.9158 6.4795 14.9814 6.63399 14.9842 6.79591Z" fill="#26A925"/>
</svg>
