<svg width="32" height="32" viewBox="0 0 32 32" fill="none" xmlns="http://www.w3.org/2000/svg">
<g filter="url(#filter0_b_3766_59976)">
<rect width="32" height="32" rx="16" fill="#001C38" fill-opacity="0.65"/>
<path fill-rule="evenodd" clip-rule="evenodd" d="M22.3854 11.0692C22.4876 11.1715 22.545 11.3101 22.545 11.4546C22.545 11.5992 22.4876 11.7378 22.3854 11.8401L14.7491 20.2037C14.6977 20.2551 14.6366 20.2956 14.5693 20.323C14.5021 20.3504 14.43 20.3641 14.3574 20.3633C14.2848 20.3625 14.2131 20.3472 14.1465 20.3183C14.0798 20.2894 14.0197 20.2475 13.9694 20.195L9.60581 16.0132C9.55405 15.9619 9.5131 15.9007 9.48537 15.8333C9.45764 15.766 9.4437 15.6937 9.44436 15.6208C9.44502 15.548 9.46028 15.476 9.48923 15.4091C9.51818 15.3422 9.56024 15.2818 9.61293 15.2315C9.66561 15.1811 9.72784 15.1418 9.79596 15.1159C9.86408 15.09 9.93669 15.0781 10.0095 15.0807C10.0823 15.0833 10.1539 15.1005 10.22 15.1313C10.286 15.162 10.3453 15.2057 10.3942 15.2597L14.3724 19.0379L21.6145 11.0692C21.7168 10.967 21.8554 10.9097 22 10.9097C22.1445 10.9097 22.2832 10.967 22.3854 11.0692Z" fill="white"/>
</g>
<defs>
<filter id="filter0_b_3766_59976" x="-8.72727" y="-8.72727" width="49.4545" height="49.4545" filterUnits="userSpaceOnUse" color-interpolation-filters="sRGB">
<feFlood flood-opacity="0" result="BackgroundImageFix"/>
<feGaussianBlur in="BackgroundImageFix" stdDeviation="4.36364"/>
<feComposite in2="SourceAlpha" operator="in" result="effect1_backgroundBlur_3766_59976"/>
<feBlend mode="normal" in="SourceGraphic" in2="effect1_backgroundBlur_3766_59976" result="shape"/>
</filter>
</defs>
</svg>
