<svg width="24" height="24" viewBox="0 0 24 24" fill="none" xmlns="http://www.w3.org/2000/svg">
<path fill-rule="evenodd" clip-rule="evenodd" d="M1 12C1 5.925 5.925 1 12 1C18.075 1 23 5.925 23 12C23 18.075 18.075 23 12 23C5.925 23 1 18.075 1 12ZM17.9812 8.75548C17.9846 8.94978 17.9125 9.13782 17.78 9.28L10.78 15.78C10.6394 15.9204 10.4487 15.9993 10.25 15.9993C10.0512 15.9993 9.86062 15.9204 9.72 15.78L6.22 12.28C6.08752 12.1378 6.0154 11.9498 6.01882 11.7555C6.02225 11.5612 6.10096 11.3758 6.23838 11.2384C6.37579 11.101 6.56118 11.0223 6.75548 11.0188C6.94978 11.0154 7.13782 11.0875 7.28 11.22L10.25 14.19L16.72 8.22C16.8622 8.08752 17.0502 8.0154 17.2445 8.01882C17.4388 8.02225 17.6242 8.10097 17.7616 8.23838C17.899 8.37579 17.9777 8.56118 17.9812 8.75548Z" fill="#FCFCFF"/>
</svg>
