<svg width="10" height="10" viewBox="0 0 10 10" fill="none" xmlns="http://www.w3.org/2000/svg">
<g clip-path="url(#clip0_3319_5285)">
<path d="M5.20793 3.02067C5.20793 2.93779 5.175 2.8583 5.1164 2.7997C5.05779 2.74109 4.97831 2.70817 4.89543 2.70817C4.81255 2.70817 4.73306 2.74109 4.67446 2.7997C4.61585 2.8583 4.58293 2.93779 4.58293 3.02067V5.31234C4.58293 5.42484 4.64293 5.52817 4.74043 5.58359L6.19876 6.41692C6.27055 6.45572 6.35466 6.4649 6.43313 6.4425C6.51159 6.4201 6.57818 6.36789 6.61867 6.29705C6.65915 6.2262 6.67032 6.14232 6.64978 6.06335C6.62924 5.98438 6.57863 5.91657 6.50876 5.87442L5.20793 5.13109V3.02067Z" fill="white"/>
<path fill-rule="evenodd" clip-rule="evenodd" d="M4.99959 0.416504C2.46834 0.416504 0.41626 2.46859 0.41626 4.99984C0.41626 7.53109 2.46834 9.58317 4.99959 9.58317C7.53084 9.58317 9.58293 7.53109 9.58293 4.99984C9.58293 2.46859 7.53084 0.416504 4.99959 0.416504ZM1.04126 4.99984C1.04126 3.95002 1.4583 2.9432 2.20063 2.20087C2.94296 1.45854 3.94978 1.0415 4.99959 1.0415C6.04941 1.0415 7.05623 1.45854 7.79856 2.20087C8.54089 2.9432 8.95793 3.95002 8.95793 4.99984C8.95793 6.04965 8.54089 7.05647 7.79856 7.7988C7.05623 8.54113 6.04941 8.95817 4.99959 8.95817C3.94978 8.95817 2.94296 8.54113 2.20063 7.7988C1.4583 7.05647 1.04126 6.04965 1.04126 4.99984Z" fill="white"/>
</g>
<defs>
<clipPath id="clip0_3319_5285">
<rect width="10" height="10" fill="white"/>
</clipPath>
</defs>
</svg>
