<svg width="18" height="18" viewBox="0 0 18 18" fill="#1B73C0" xmlns="http://www.w3.org/2000/svg">
<path d="M8.99984 0.666992C13.6022 0.666992 17.3332 4.39795 17.3332 9.00033C17.3332 13.6027 13.6022 17.3337 8.99984 17.3337H2.33317C1.4127 17.3337 0.666504 16.5875 0.666504 15.667V9.00033C0.666504 4.39795 4.39746 0.666992 8.99984 0.666992ZM8.99984 2.33366C5.31794 2.33366 2.33317 5.31843 2.33317 9.00033V15.667H8.99984C12.6818 15.667 15.6665 12.6822 15.6665 9.00033C15.6665 5.31843 12.6818 2.33366 8.99984 2.33366ZM8.99984 10.667C9.46009 10.667 9.83317 11.0401 9.83317 11.5003C9.83317 11.9277 9.51148 12.2799 9.09702 12.3281L8.99984 12.3337H6.49984C6.0396 12.3337 5.6665 11.9606 5.6665 11.5003C5.6665 11.073 5.98821 10.7207 6.40265 10.6726L6.49984 10.667H8.99984ZM11.4998 7.33366C11.9601 7.33366 12.3332 7.70674 12.3332 8.16699C12.3332 8.62724 11.9601 9.00033 11.4998 9.00033H6.49984C6.0396 9.00033 5.6665 8.62724 5.6665 8.16699C5.6665 7.70674 6.0396 7.33366 6.49984 7.33366H11.4998Z" fill="#1B73C0"/>
</svg>
