<svg width="21" height="12" viewBox="0 0 21 12" fill="none" xmlns="http://www.w3.org/2000/svg">
<path d="M13.4846 6C13.4846 7.62943 12.1486 8.95025 10.5005 8.95025C8.85243 8.95025 7.51647 7.62943 7.51647 6C7.51647 4.37057 8.85243 3.04975 10.5005 3.04975C12.1486 3.04975 13.4846 4.37057 13.4846 6Z" fill="white"/>
<path fill-rule="evenodd" clip-rule="evenodd" d="M10.5001 0C14.7119 0 18.3935 2.24505 20.3872 5.59127C20.5376 5.84362 20.5376 6.15638 20.3872 6.40873C18.3935 9.75495 14.7119 12 10.5001 12C6.28808 12 2.60646 9.75494 0.612762 6.40872C0.462413 6.15637 0.462413 5.84363 0.612762 5.59128C2.60646 2.24505 6.28808 0 10.5001 0ZM2.0546 6.18846C3.86921 8.89393 6.97534 10.6741 10.5001 10.6741C14.0246 10.6741 17.1307 8.89393 18.9454 6.18846C19.022 6.07423 19.022 5.92577 18.9454 5.81154C17.1307 3.10607 14.0246 1.32589 10.5001 1.32589C6.97534 1.32589 3.86921 3.10607 2.0546 5.81154C1.97798 5.92577 1.97798 6.07423 2.0546 6.18846Z" fill="white"/>
</svg>
