<svg width="21" height="18" viewBox="0 0 21 18" fill="none" xmlns="http://www.w3.org/2000/svg">
<path fill-rule="evenodd" clip-rule="evenodd" d="M19.0303 1.53033C19.3232 1.23744 19.3232 0.762563 19.0303 0.46967C18.7374 0.176777 18.2626 0.176777 17.9697 0.46967L1.96967 16.4697C1.67678 16.7626 1.67678 17.2374 1.96967 17.5303C2.26256 17.8232 2.73744 17.8232 3.03033 17.5303L5.87723 14.6834C7.24353 15.3266 8.81719 15.75 10.5 15.75C13.184 15.75 15.5903 14.6729 17.3206 13.345C18.1874 12.6797 18.9032 11.9376 19.4089 11.2089C19.9006 10.5003 20.25 9.7227 20.25 9C20.25 8.2773 19.9006 7.49971 19.4089 6.79115C18.9032 6.06244 18.1874 5.32028 17.3206 4.65503C17.0585 4.45385 16.7808 4.25842 16.489 4.07163L19.0303 1.53033ZM15.3995 5.16113L13.6287 6.93196C14.0213 7.52478 14.25 8.23569 14.25 9C14.25 11.0711 12.5711 12.75 10.5 12.75C9.73569 12.75 9.02478 12.5213 8.43196 12.1287L7.01524 13.5454C8.08077 13.9795 9.26212 14.25 10.5 14.25C12.7865 14.25 14.8802 13.3271 16.4073 12.155C17.1692 11.5703 17.7714 10.9374 18.1766 10.3536C18.5957 9.74971 18.75 9.2773 18.75 9C18.75 8.7227 18.5957 8.25029 18.1766 7.64635C17.7714 7.06256 17.1692 6.42972 16.4073 5.84497C16.0941 5.60461 15.7571 5.37472 15.3995 5.16113ZM9.52994 11.0307C9.82366 11.1713 10.1526 11.25 10.5 11.25C11.7426 11.25 12.75 10.2426 12.75 9C12.75 8.65264 12.6713 8.32366 12.5307 8.02994L9.52994 11.0307Z" fill="white"/>
<path d="M10.5 2.25C11.5323 2.25 12.5236 2.40934 13.4511 2.68101C13.6296 2.73328 13.6827 2.95662 13.5513 3.0881L12.7267 3.91265C12.6648 3.97451 12.5752 3.99928 12.49 3.97967C11.8506 3.83257 11.1839 3.75 10.5 3.75C8.21345 3.75 6.11978 4.67292 4.59267 5.84497C3.83078 6.42972 3.22857 7.06256 2.82343 7.64635C2.40431 8.25029 2.25 8.7227 2.25 9C2.25 9.2773 2.40431 9.74971 2.82343 10.3536C3.17725 10.8635 3.68138 11.4107 4.31091 11.9307C4.42677 12.0264 4.43781 12.2015 4.33156 12.3078L3.62265 13.0167C3.53234 13.107 3.38823 13.1149 3.29037 13.0329C2.59739 12.4517 2.01902 11.8255 1.5911 11.2089C1.09937 10.5003 0.75 9.7227 0.75 9C0.75 8.2773 1.09937 7.49971 1.5911 6.79115C2.09681 6.06244 2.81262 5.32028 3.67941 4.65503C5.40965 3.32708 7.81598 2.25 10.5 2.25Z" fill="white"/>
<path d="M10.5 5.25C10.6185 5.25 10.7357 5.25549 10.8513 5.26624C11.0482 5.28453 11.1194 5.51991 10.9796 5.6597L9.76739 6.87196C9.11408 7.09683 8.59683 7.61408 8.37196 8.26739L7.1597 9.47965C7.01991 9.61945 6.78453 9.54818 6.76624 9.35132C6.75549 9.23566 6.75 9.11847 6.75 9C6.75 6.92893 8.42893 5.25 10.5 5.25Z" fill="white"/>
</svg>
