<svg width="18" height="17" viewBox="0 0 18 17" fill="none" xmlns="http://www.w3.org/2000/svg">
<path fill-rule="evenodd" clip-rule="evenodd" d="M10.0233 1.23975C9.4215 0.771645 8.57875 0.771645 7.97691 1.23975L0.990424 6.67367C0.363457 7.16131 0.708324 8.1663 1.50256 8.1663H2.41263L3.09589 14.9988C3.18109 15.8508 3.89803 16.4996 4.75428 16.4996H13.246C14.1022 16.4996 14.8192 15.8508 14.9043 14.9988L15.5876 8.1663H16.4977C17.2911 8.1663 17.6374 7.16183 17.0098 6.67367L10.0233 1.23975ZM3.99674 7.25754C3.97356 7.02575 3.8578 6.82376 3.68836 6.68672L9.00016 2.55534L14.3119 6.68672C14.1424 6.82377 14.0267 7.02577 14.0035 7.25754L13.246 14.833H4.75428L3.99674 7.25754ZM7.75017 9.83297C7.75017 9.14264 8.30975 8.58297 9.00016 8.58297C9.6905 8.58297 10.2502 9.14264 10.2502 9.83297C10.2502 10.5233 9.6905 11.083 9.00016 11.083C8.30975 11.083 7.75017 10.5233 7.75017 9.83297ZM9.00016 6.91629C7.38933 6.91629 6.08346 8.22214 6.08346 9.83297C6.08346 11.4438 7.38933 12.7496 9.00016 12.7496C10.6109 12.7496 11.9168 11.4438 11.9168 9.83297C11.9168 8.22214 10.6109 6.91629 9.00016 6.91629Z" fill="#6D747A"/>
</svg>
