<svg width="34" height="36" viewBox="0 0 34 36" fill="none" xmlns="http://www.w3.org/2000/svg">
<rect x="0.0404053" y="0.0869141" width="33.9192" height="35.8267" rx="16.9596" fill="url(#paint0_linear_397_26678)"/>
<path d="M14.1772 18.0467C14.1772 16.3964 15.4431 15.0582 17.005 15.0582C18.567 15.0582 19.8336 16.3964 19.8336 18.0467C19.8336 19.6969 18.567 21.0351 17.005 21.0351C15.4431 21.0351 14.1772 19.6969 14.1772 18.0467ZM12.6481 18.0467C12.6481 20.589 14.5987 22.6499 17.005 22.6499C19.4113 22.6499 21.3619 20.589 21.3619 18.0467C21.3619 15.5043 19.4113 13.4434 17.005 13.4434C14.5987 13.4434 12.6481 15.5043 12.6481 18.0467ZM20.5162 13.2609C20.5161 13.4737 20.5758 13.6817 20.6876 13.8586C20.7994 14.0356 20.9584 14.1735 21.1444 14.255C21.3304 14.3365 21.5351 14.3579 21.7326 14.3165C21.9302 14.2751 22.1116 14.1727 22.2541 14.0223C22.3965 13.8719 22.4936 13.6803 22.5329 13.4716C22.5723 13.263 22.5522 13.0467 22.4752 12.8501C22.3982 12.6535 22.2678 12.4854 22.1004 12.3671C21.933 12.2488 21.7362 12.1857 21.5348 12.1856H21.5344C21.2645 12.1857 21.0056 12.299 20.8147 12.5007C20.6238 12.7023 20.5164 12.9757 20.5162 13.2609ZM13.5771 25.3437C12.7499 25.3039 12.3003 25.1583 12.0015 25.0353C11.6053 24.8723 11.3227 24.6783 11.0255 24.3647C10.7283 24.0512 10.5444 23.7528 10.3908 23.3343C10.2743 23.0187 10.1365 22.5435 10.0989 21.6695C10.0578 20.7246 10.0496 20.4407 10.0496 18.0467C10.0496 15.6527 10.0585 15.3697 10.0989 14.4239C10.1366 13.5499 10.2754 13.0757 10.3908 12.7592C10.545 12.3406 10.7287 12.042 11.0255 11.728C11.3223 11.4141 11.6046 11.2197 12.0015 11.0575C12.3001 10.9344 12.7499 10.7888 13.5771 10.7491C14.4715 10.7056 14.7402 10.697 17.005 10.697C19.2699 10.697 19.5388 10.7064 20.4339 10.7491C21.2612 10.7889 21.7101 10.9356 22.0096 11.0575C22.4058 11.2197 22.6884 11.4145 22.9856 11.728C23.2828 12.0416 23.466 12.3406 23.6203 12.7592C23.7367 13.0747 23.8745 13.5499 23.9121 14.4239C23.9533 15.3697 23.9615 15.6527 23.9615 18.0467C23.9615 20.4407 23.9533 20.7238 23.9121 21.6695C23.8745 22.5435 23.736 23.0186 23.6203 23.3343C23.466 23.7528 23.2824 24.0515 22.9856 24.3647C22.6888 24.678 22.4058 24.8723 22.0096 25.0353C21.711 25.1583 21.2612 25.3039 20.4339 25.3437C19.5396 25.3871 19.2709 25.3958 17.005 25.3958C14.7392 25.3958 14.4712 25.3871 13.5771 25.3437ZM13.5069 9.13632C12.6036 9.17978 11.9864 9.3311 11.4474 9.55271C10.8891 9.78156 10.4165 10.0886 9.94431 10.5867C9.47208 11.0849 9.18223 11.585 8.96563 12.1748C8.75589 12.7446 8.61266 13.3964 8.57153 14.3507C8.52971 15.3066 8.52014 15.6122 8.52014 18.0467C8.52014 20.4812 8.52971 20.7868 8.57153 21.7426C8.61266 22.697 8.75589 23.3487 8.96563 23.9186C9.18223 24.508 9.47215 25.0087 9.94431 25.5066C10.4165 26.0045 10.8891 26.3111 11.4474 26.5406C11.9874 26.7622 12.6036 26.9135 13.5069 26.957C14.412 27.0005 14.7008 27.0113 17.005 27.0113C19.3093 27.0113 19.5985 27.0012 20.5032 26.957C21.4065 26.9135 22.0233 26.7622 22.5627 26.5406C23.1206 26.3111 23.5935 26.0047 24.0657 25.5066C24.538 25.0085 24.8272 24.508 25.0444 23.9186C25.2542 23.3487 25.3981 22.6969 25.4385 21.7426C25.4797 20.786 25.4892 20.4812 25.4892 18.0467C25.4892 15.6122 25.4797 15.3066 25.4385 14.3507C25.3974 13.3963 25.2542 12.7443 25.0444 12.1748C24.8272 11.5853 24.5372 11.0857 24.0657 10.5867C23.5943 10.0878 23.1206 9.78156 22.5634 9.55271C22.0233 9.3311 21.4064 9.17906 20.5039 9.13632C19.5992 9.09286 19.3099 9.08203 17.0057 9.08203C14.7015 9.08203 14.412 9.09214 13.5069 9.13632Z" fill="white"/>
<defs>
<linearGradient id="paint0_linear_397_26678" x1="33.3077" y1="35.9136" x2="-2.46546" y2="2.04511" gradientUnits="userSpaceOnUse">
<stop stop-color="#FBE18A"/>
<stop offset="0.21" stop-color="#FCBB45"/>
<stop offset="0.38" stop-color="#F75274"/>
<stop offset="0.52" stop-color="#D53692"/>
<stop offset="0.74" stop-color="#8F39CE"/>
<stop offset="1" stop-color="#5B4FE9"/>
</linearGradient>
</defs>
</svg>
