<svg width="22" height="19" viewBox="0 0 22 19" fill="none" xmlns="http://www.w3.org/2000/svg">
<path fill-rule="evenodd" clip-rule="evenodd" d="M11.378 18.8987C11.2719 18.9534 11.1193 19 11 19C10.8807 19 10.7281 18.9534 10.622 18.8987C10.0714 18.6007 9.53045 18.2851 9 17.9524C7.73487 17.1607 6.5281 16.2789 5.389 15.3139C2.8 13.1054 0 9.85637 0 6.02891V6.0279C0 2.55933 2.829 0 5.736 0C8.03 0 9.881 1.22904 11 3.1127C12.12 1.22904 13.97 0 16.264 0C19.17 0 22 2.55833 22 6.02891C22 9.85637 19.199 13.1064 16.611 15.3139C14.9928 16.6841 13.2394 17.8853 11.378 18.8987ZM1.5 6.02891C1.5 3.38838 3.657 1.50372 5.736 1.50372C7.841 1.50372 9.537 2.89616 10.289 5.15575C10.339 5.30508 10.4345 5.4349 10.5621 5.52686C10.6897 5.61883 10.8429 5.66831 11 5.66831C11.1571 5.66831 11.3103 5.61883 11.4379 5.52686C11.5655 5.4349 11.661 5.30508 11.711 5.15575C12.463 2.89616 14.158 1.50372 16.264 1.50372C18.343 1.50372 20.5 3.38838 20.5 6.02891C20.5 9.14361 18.176 12.0037 15.639 14.169C14.393 15.2327 13.143 16.0878 12.203 16.6772C11.734 16.972 11.344 17.1995 11.073 17.3529L11 17.393L10.927 17.3519C9.30892 16.4366 7.7802 15.371 6.361 14.169C3.824 12.0037 1.5 9.14361 1.5 6.02891Z" fill="white"/>
</svg>
