<svg width="54" height="45" viewBox="0 0 54 45" fill="none" xmlns="http://www.w3.org/2000/svg">
<g filter="url(#filter0_d_2249_1621)">
<path d="M29 28.408C28.508 28.716 28.097 28.954 27.808 29.117C27.655 29.203 27.5 29.287 27.345 29.369H27.343C27.2369 29.4236 27.1193 29.452 27 29.452C26.8807 29.452 26.7631 29.4236 26.657 29.369C26.5007 29.2875 26.3457 29.2035 26.192 29.117C24.4898 28.1568 22.8817 27.0386 21.389 25.777C18.8 23.572 16 20.331 16 16.513C16 13.052 18.829 10.5 21.736 10.5C24.03 10.5 25.881 11.726 27 13.605C28.12 11.726 29.97 10.5 32.264 10.5C35.17 10.5 38 13.052 38 16.514C38 20.332 35.199 23.574 32.611 25.776C31.4719 26.7387 30.2651 27.6183 29 28.408Z" fill="#DD1D43"/>
<path d="M29.106 28.5776C30.3792 27.7828 31.5937 26.8976 32.7401 25.9288L32.7406 25.9283C35.3353 23.7206 38.2 20.4268 38.2 16.514C38.2 12.9415 35.2805 10.3 32.264 10.3C30.005 10.3 28.1649 11.4516 27.0001 13.2278C25.836 11.4515 23.9949 10.3 21.736 10.3C18.7185 10.3 15.8 12.9415 15.8 16.513C15.8 20.4258 18.6637 23.7186 21.2593 25.9293L21.2599 25.9298C22.7622 27.1994 24.3806 28.3249 26.0937 29.2912L26.0939 29.2913C26.2494 29.3788 26.4063 29.4638 26.5645 29.5463L26.5655 29.5469C26.6999 29.616 26.8489 29.652 27 29.652C27.1341 29.652 27.2664 29.6237 27.3884 29.569H27.3946L27.4385 29.5458C27.5947 29.4632 27.7512 29.3783 27.906 29.2913L27.9063 29.2912C28.1972 29.1271 28.6109 28.8876 29.106 28.5776ZM29.106 28.5776C29.106 28.5776 29.1059 28.5776 29.1059 28.5777L29 28.408M29.106 28.5776C29.1061 28.5776 29.1061 28.5775 29.1061 28.5775L29 28.408M29 28.408C30.2651 27.6183 31.4719 26.7387 32.611 25.776L27.808 29.117C28.097 28.954 28.508 28.716 29 28.408Z" stroke="#F3F4F9" stroke-width="0.4"/>
</g>
<defs>
<filter id="filter0_d_2249_1621" x="0.933309" y="-4.56706" width="52.1334" height="49.0853" filterUnits="userSpaceOnUse" color-interpolation-filters="sRGB">
<feFlood flood-opacity="0" result="BackgroundImageFix"/>
<feColorMatrix in="SourceAlpha" type="matrix" values="0 0 0 0 0 0 0 0 0 0 0 0 0 0 0 0 0 0 127 0" result="hardAlpha"/>
<feOffset/>
<feGaussianBlur stdDeviation="7.33333"/>
<feComposite in2="hardAlpha" operator="out"/>
<feColorMatrix type="matrix" values="0 0 0 0 0.883333 0 0 0 0 0.945997 0 0 0 0 1 0 0 0 0.4 0"/>
<feBlend mode="normal" in2="BackgroundImageFix" result="effect1_dropShadow_2249_1621"/>
<feBlend mode="normal" in="SourceGraphic" in2="effect1_dropShadow_2249_1621" result="shape"/>
</filter>
</defs>
</svg>
