<svg width="14" height="11" viewBox="0 0 14 11" fill="none" xmlns="http://www.w3.org/2000/svg">
<path fill-rule="evenodd" clip-rule="evenodd" d="M13.585 0.914505C13.6904 1.01997 13.7495 1.16294 13.7495 1.31201C13.7495 1.46107 13.6904 1.60404 13.585 1.70951L5.71002 10.3345C5.65704 10.3874 5.59403 10.4293 5.52467 10.4575C5.45532 10.4858 5.38102 10.4999 5.30613 10.4991C5.23124 10.4982 5.15727 10.4824 5.08857 10.4526C5.01986 10.4228 4.9578 10.3796 4.90602 10.3255L0.40602 6.013C0.352646 5.9601 0.310414 5.89704 0.281818 5.82754C0.253222 5.75805 0.238841 5.68353 0.239525 5.60838C0.240209 5.53323 0.255945 5.45898 0.285801 5.39002C0.315658 5.32106 0.359031 5.25877 0.41336 5.20685C0.467688 5.15493 0.531869 5.11442 0.602114 5.08771C0.672359 5.06101 0.747243 5.04865 0.822344 5.05137C0.897444 5.05409 0.971239 5.07182 1.03937 5.10354C1.1075 5.13525 1.16859 5.18029 1.21902 5.23601L5.32152 9.13226L12.79 0.914505C12.8955 0.809167 13.0385 0.75 13.1875 0.75C13.3366 0.75 13.4796 0.809167 13.585 0.914505Z" fill="white"/>
</svg>
