<svg width="15" height="16" viewBox="0 0 15 16" fill="none" xmlns="http://www.w3.org/2000/svg">
<path d="M0.627558 14.7692C0.427211 14.5688 0.327273 14.3331 0.327744 14.0621C0.327273 13.791 0.427211 13.5553 0.627558 13.3549L11.3579 2.6246L5.86015 2.60693C5.60088 2.60693 5.37083 2.51264 5.17001 2.32408C4.97014 2.13552 4.8702 1.89982 4.8702 1.61698C4.8702 1.3577 4.97037 1.12789 5.17072 0.927547C5.37107 0.7272 5.60088 0.627027 5.86015 0.627027L13.7797 0.627027C13.9212 0.627027 14.048 0.653425 14.1602 0.706223C14.2719 0.759492 14.3749 0.833266 14.4692 0.927547C14.5635 1.02183 14.6372 1.12483 14.6905 1.23655C14.7433 1.34875 14.7697 1.47555 14.7697 1.61698L14.7697 9.53657C14.7697 9.79584 14.6726 10.0226 14.4784 10.2168C14.2837 10.4115 14.0508 10.5147 13.7797 10.5265C13.4969 10.5265 13.2581 10.4292 13.0634 10.2345C12.8692 10.0403 12.7721 9.80174 12.7721 9.51889L12.7721 4.03882L2.04177 14.7692C1.84142 14.9695 1.60596 15.0697 1.33537 15.0697C1.06384 15.0697 0.827905 14.9695 0.627558 14.7692Z" fill="#0E181E"/>
</svg>
