<svg width="59" height="60" viewBox="0 0 59 60" fill="none" xmlns="http://www.w3.org/2000/svg">
<g clip-path="url(#clip0_3319_5293)">
<rect x="29.6985" y="1.41406" width="40" height="40" rx="20" transform="rotate(45 29.6985 1.41406)" fill="#2F4156"/>
<rect width="40" height="40" transform="translate(29.6985 1.41406) rotate(45)" fill="#D3E6FE"/>
<mask id="mask0_3319_5293" style="mask-type:alpha" maskUnits="userSpaceOnUse" x="12" y="12" width="35" height="35">
<rect x="29.6985" y="12.7275" width="24" height="24" transform="rotate(45 29.6985 12.7275)" fill="#D9D9D9"/>
</mask>
<g mask="url(#mask0_3319_5293)">
<path d="M22.6274 36.7692C22.4271 36.5688 22.3272 36.3331 22.3276 36.0621C22.3272 35.791 22.4271 35.5553 22.6274 35.3549L33.3578 24.6246L27.86 24.6069C27.6008 24.6069 27.3707 24.5126 27.1699 24.3241C26.97 24.1355 26.8701 23.8998 26.8701 23.617C26.8701 23.3577 26.9703 23.1279 27.1706 22.9275C27.3709 22.7272 27.6008 22.627 27.86 22.627L35.7796 22.627C35.921 22.627 36.0479 22.6534 36.16 22.7062C36.2718 22.7595 36.3748 22.8333 36.4691 22.9275C36.5633 23.0218 36.6371 23.1248 36.6904 23.2366C36.7432 23.3487 36.7696 23.4756 36.7696 23.617L36.7696 31.5366C36.7696 31.7958 36.6725 32.0226 36.4782 32.2168C36.2836 32.4115 36.0507 32.5147 35.7796 32.5265C35.4968 32.5265 35.258 32.4292 35.0633 32.2345C34.8691 32.0403 34.772 31.8017 34.772 31.5189L34.772 26.0388L24.0416 36.7692C23.8413 36.9695 23.6058 37.0697 23.3352 37.0697C23.0637 37.0697 22.8278 36.9695 22.6274 36.7692Z" fill="#0E181E"/>
</g>
</g>
<defs>
<clipPath id="clip0_3319_5293">
<rect x="29.6985" y="1.41406" width="40" height="40" rx="20" transform="rotate(45 29.6985 1.41406)" fill="white"/>
</clipPath>
</defs>
</svg>
