<svg width="18" height="15" viewBox="0 0 18 15" fill="none" xmlns="http://www.w3.org/2000/svg">
<path fill-rule="evenodd" clip-rule="evenodd" d="M7.78007 14.0292C7.63945 14.1696 7.44882 14.2485 7.25007 14.2485C7.05132 14.2485 6.8607 14.1696 6.72007 14.0292L0.470073 7.77918C0.329622 7.63855 0.250732 7.44793 0.250732 7.24918C0.250732 7.05043 0.329622 6.8598 0.470073 6.71918L6.72007 0.469177C6.78873 0.39549 6.87153 0.336388 6.96353 0.295396C7.05553 0.254404 7.15485 0.232362 7.25555 0.230585C7.35625 0.228809 7.45628 0.247333 7.54967 0.285054C7.64306 0.322775 7.72789 0.37892 7.79911 0.450138C7.87033 0.521357 7.92647 0.606191 7.9642 0.699579C8.00192 0.792967 8.02044 0.892997 8.01866 0.993699C8.01689 1.0944 7.99485 1.19372 7.95385 1.28571C7.91286 1.37771 7.85376 1.46052 7.78007 1.52918L2.81007 6.49918H17.2501C17.449 6.49918 17.6398 6.5782 17.7804 6.71885C17.9211 6.8595 18.0001 7.05026 18.0001 7.24918C18.0001 7.44809 17.9211 7.63885 17.7804 7.77951C17.6398 7.92016 17.449 7.99918 17.2501 7.99918H2.81007L7.78007 12.9692C7.92052 13.1098 7.99941 13.3004 7.99941 13.4992C7.99941 13.6979 7.92052 13.8886 7.78007 14.0292Z" fill="#08090A"/>
</svg>
