<svg width="19" height="15" viewBox="0 0 19 15" fill="none" xmlns="http://www.w3.org/2000/svg">
<mask id="path-1-outside-1_4414_4812" maskUnits="userSpaceOnUse" x="0.488403" y="0.166016" width="19" height="15" fill="black">
<rect fill="white" x="0.488403" y="0.166016" width="19" height="15"/>
<path fill-rule="evenodd" clip-rule="evenodd" d="M17.3168 2.3488C17.4338 2.46599 17.4995 2.62484 17.4995 2.79047C17.4995 2.95609 17.4338 3.11494 17.3168 3.23213L8.56676 12.8155C8.50789 12.8743 8.43788 12.9208 8.36081 12.9522C8.28375 12.9836 8.2012 12.9992 8.11799 12.9983C8.03478 12.9974 7.95259 12.9798 7.87625 12.9467C7.79991 12.9136 7.73096 12.8656 7.67342 12.8055L2.67342 8.0138C2.61412 7.95502 2.56719 7.88495 2.53542 7.80773C2.50365 7.73051 2.48767 7.64771 2.48843 7.56421C2.48919 7.48072 2.50667 7.39822 2.53985 7.32159C2.57302 7.24497 2.62121 7.17576 2.68158 7.11807C2.74194 7.06038 2.81326 7.01537 2.89131 6.9857C2.96936 6.95603 3.05256 6.94229 3.13601 6.94531C3.21945 6.94833 3.30144 6.96804 3.37715 7.00328C3.45285 7.03851 3.52072 7.08856 3.57676 7.15047L8.13509 11.4796L16.4334 2.3488C16.5506 2.23176 16.7095 2.16602 16.8751 2.16602C17.0407 2.16602 17.1996 2.23176 17.3168 2.3488Z"/>
</mask>
<path fill-rule="evenodd" clip-rule="evenodd" d="M17.3168 2.3488C17.4338 2.46599 17.4995 2.62484 17.4995 2.79047C17.4995 2.95609 17.4338 3.11494 17.3168 3.23213L8.56676 12.8155C8.50789 12.8743 8.43788 12.9208 8.36081 12.9522C8.28375 12.9836 8.2012 12.9992 8.11799 12.9983C8.03478 12.9974 7.95259 12.9798 7.87625 12.9467C7.79991 12.9136 7.73096 12.8656 7.67342 12.8055L2.67342 8.0138C2.61412 7.95502 2.56719 7.88495 2.53542 7.80773C2.50365 7.73051 2.48767 7.64771 2.48843 7.56421C2.48919 7.48072 2.50667 7.39822 2.53985 7.32159C2.57302 7.24497 2.62121 7.17576 2.68158 7.11807C2.74194 7.06038 2.81326 7.01537 2.89131 6.9857C2.96936 6.95603 3.05256 6.94229 3.13601 6.94531C3.21945 6.94833 3.30144 6.96804 3.37715 7.00328C3.45285 7.03851 3.52072 7.08856 3.57676 7.15047L8.13509 11.4796L16.4334 2.3488C16.5506 2.23176 16.7095 2.16602 16.8751 2.16602C17.0407 2.16602 17.1996 2.23176 17.3168 2.3488Z" fill="#26A925"/>
<path d="M17.3168 2.3488L18.3781 1.2888L18.3768 1.28748L17.3168 2.3488ZM17.3168 3.23213L16.2554 2.17213L16.2317 2.19591L16.209 2.22073L17.3168 3.23213ZM8.56676 12.8155L9.62701 13.8765L9.65132 13.8522L9.67448 13.8269L8.56676 12.8155ZM7.67342 12.8055L8.75717 11.7684L8.73472 11.7449L8.71128 11.7225L7.67342 12.8055ZM2.67342 8.0138L1.61747 9.07915L1.62644 9.08804L1.63557 9.09678L2.67342 8.0138ZM3.57676 7.15047L2.46471 8.15712L2.50272 8.19911L2.54379 8.23811L3.57676 7.15047ZM8.13509 11.4796L7.10212 12.5673L8.21391 13.6232L9.24515 12.4885L8.13509 11.4796ZM16.4334 2.3488L15.3734 1.28748L15.3478 1.31311L15.3234 1.33995L16.4334 2.3488ZM16.8751 2.16602V3.66602V2.16602ZM16.2554 3.4088C16.0916 3.24473 15.9995 3.02234 15.9995 2.79047H18.9995C18.9995 2.22734 18.776 1.68724 18.3781 1.2888L16.2554 3.4088ZM15.9995 2.79047C15.9995 2.55859 16.0916 2.3362 16.2554 2.17213L18.3781 4.29213C18.776 3.89369 18.9995 3.35359 18.9995 2.79047H15.9995ZM16.209 2.22073L7.45903 11.8041L9.67448 13.8269L18.4245 4.24354L16.209 2.22073ZM7.5065 11.7544C7.58891 11.6721 7.68694 11.607 7.79482 11.563L8.92681 14.3413C9.18881 14.2345 9.42687 14.0765 9.62701 13.8765L7.5065 11.7544ZM7.79482 11.563C7.90269 11.5191 8.01827 11.4971 8.13478 11.4984L8.1012 14.4982C8.38412 14.5014 8.66481 14.448 8.92681 14.3413L7.79482 11.563ZM8.13478 11.4984C8.25127 11.4997 8.36633 11.5243 8.4732 11.5706L7.2793 14.3228C7.53886 14.4354 7.81829 14.4951 8.1012 14.4982L8.13478 11.4984ZM8.4732 11.5706C8.58009 11.617 8.67663 11.6842 8.75717 11.7684L6.58968 13.8425C6.78528 14.0469 7.01974 14.2102 7.2793 14.3228L8.4732 11.5706ZM8.71128 11.7225L3.71128 6.93082L1.63557 9.09678L6.63557 13.8884L8.71128 11.7225ZM3.72938 6.94845C3.8124 7.03074 3.87809 7.12884 3.92258 7.23695L1.14826 8.37852C1.2563 8.64106 1.41584 8.87929 1.61747 9.07915L3.72938 6.94845ZM3.92258 7.23695C3.96706 7.34505 3.98943 7.46098 3.98837 7.57787L0.988491 7.55056C0.985907 7.83445 1.04023 8.11597 1.14826 8.37852L3.92258 7.23695ZM3.98837 7.57787C3.9873 7.69477 3.96283 7.81026 3.91638 7.91754L1.16331 6.72565C1.05052 6.98618 0.991076 7.26667 0.988491 7.55056L3.98837 7.57787ZM3.91638 7.91754C3.86994 8.02482 3.80247 8.1217 3.71796 8.20247L1.6452 6.03367C1.43996 6.22983 1.2761 6.46512 1.16331 6.72565L3.91638 7.91754ZM3.71796 8.20247C3.63345 8.28324 3.53361 8.34625 3.42434 8.38779L2.35827 5.5836C2.0929 5.68449 1.85044 5.83752 1.6452 6.03367L3.71796 8.20247ZM3.42434 8.38779C3.31507 8.42934 3.19858 8.44856 3.08176 8.44433L3.19025 5.44629C2.90654 5.43603 2.62364 5.48271 2.35827 5.5836L3.42434 8.38779ZM3.08176 8.44433C2.96494 8.4401 2.85015 8.41251 2.74416 8.36318L4.01013 5.64338C3.75274 5.52357 3.47396 5.45656 3.19025 5.44629L3.08176 8.44433ZM2.74416 8.36318C2.63818 8.31385 2.54316 8.24378 2.46471 8.15712L4.6888 6.14381C4.49828 5.93334 4.26751 5.76318 4.01013 5.64338L2.74416 8.36318ZM2.54379 8.23811L7.10212 12.5673L9.16806 10.392L4.60972 6.06282L2.54379 8.23811ZM9.24515 12.4885L17.5435 3.35765L15.3234 1.33995L7.02503 10.4708L9.24515 12.4885ZM17.4934 3.41012C17.3294 3.57398 17.107 3.66602 16.8751 3.66602V0.666016C16.312 0.666016 15.7719 0.889534 15.3734 1.28748L17.4934 3.41012ZM16.8751 3.66602C16.6432 3.66602 16.4208 3.57398 16.2568 3.41012L18.3768 1.28748C17.9783 0.889534 17.4382 0.666016 16.8751 0.666016V3.66602Z" fill="#26A925" mask="url(#path-1-outside-1_4414_4812)"/>
</svg>
