<svg width="14" height="14" viewBox="0 0 14 14" fill="none" xmlns="http://www.w3.org/2000/svg">
<path d="M0.865962 0.883908L0.865962 0.883908L0.865522 0.884348C0.631559 1.11822 0.5 1.43543 0.5 1.76632C0.5 2.09721 0.631559 2.41441 0.865522 2.64829L0.865742 2.64851L5.22425 7L0.865742 11.3515L0.859498 11.3577L0.853479 11.3642C0.632778 11.6006 0.512499 11.9136 0.518216 12.2371C0.523933 12.5605 0.655191 12.869 0.884093 13.0976C1.11297 13.3261 1.42159 13.4568 1.74488 13.4625C2.06817 13.4682 2.38119 13.3484 2.61799 13.1281L2.62445 13.1221L2.63069 13.1159L6.99033 8.76324L11.3445 13.1104C11.4576 13.2296 11.593 13.3253 11.7431 13.3921C11.8963 13.4602 12.0615 13.4969 12.2291 13.4998C12.3967 13.5028 12.5631 13.472 12.7186 13.4093C12.874 13.3466 13.0153 13.2533 13.1339 13.1349C13.2526 13.0164 13.3461 12.8753 13.409 12.7199C13.4719 12.5644 13.5028 12.3979 13.4998 12.2303C13.4968 12.0627 13.4601 11.8974 13.3918 11.7443C13.3248 11.5942 13.2288 11.4589 13.1095 11.3461L8.75642 7L13.1095 2.65395C13.2288 2.54111 13.3248 2.40581 13.3918 2.25574C13.4601 2.10263 13.4968 1.93733 13.4998 1.76969C13.5028 1.60206 13.4719 1.43556 13.409 1.28013C13.3461 1.12471 13.2526 0.983587 13.1339 0.865149C13.0153 0.746712 12.874 0.653387 12.7186 0.590701C12.5632 0.528016 12.3967 0.497242 12.2291 0.500194C12.0615 0.503146 11.8963 0.539763 11.7431 0.607889C11.593 0.674664 11.4576 0.770382 11.3445 0.889562L6.99033 5.23676L2.63069 0.884128L2.63047 0.883908C2.39624 0.65035 2.07891 0.519308 1.74821 0.519308C1.41752 0.519308 1.10019 0.65035 0.865962 0.883908Z" fill="#DD1D43" stroke="#DD1D43"/>
</svg>
