<svg width="36" height="34" viewBox="0 0 36 34" fill="none" xmlns="http://www.w3.org/2000/svg">
<path d="M17.8007 0.333984C27.3736 0.333984 35.1341 7.7959 35.1341 17.0007C35.1341 18.082 35.0268 19.1407 34.8214 20.1672C34.1528 23.5073 30.6668 24.9188 27.7461 24.4508L24.7303 23.9675C24.0182 23.8533 23.2926 24.077 22.7823 24.5677C22.1412 25.1842 21.8347 26.0317 22.2662 26.8612C22.9988 28.2702 23.0091 29.8812 22.3615 31.1997C21.494 32.9663 19.724 33.6673 17.8007 33.6673C8.2278 33.6673 0.467407 26.2053 0.467407 17.0007C0.467407 7.7959 8.2278 0.333984 17.8007 0.333984ZM17.8007 3.66732C10.1424 3.66732 3.93407 9.63685 3.93407 17.0007C3.93407 24.3645 10.1424 30.334 17.8007 30.334L18.1385 30.3305C18.5853 30.3149 19.0038 30.2305 19.2268 29.7765C19.4077 29.408 19.4356 28.8713 19.1654 28.3518C18.0722 26.2493 18.6418 23.835 20.3311 22.2107C21.6331 20.9587 23.4838 20.3885 25.3002 20.6795L28.316 21.1628C29.9762 21.4288 31.2081 20.5818 31.4171 19.5372C31.5813 18.7173 31.6674 17.8695 31.6674 17.0007C31.6674 9.63685 25.4591 3.66732 17.8007 3.66732ZM10.0007 15.334C11.4367 15.334 12.6007 16.4533 12.6007 17.834C12.6007 19.2147 11.4367 20.334 10.0007 20.334C8.56479 20.334 7.40074 19.2147 7.40074 17.834C7.40074 16.4533 8.56479 15.334 10.0007 15.334ZM22.1341 8.66732C23.57 8.66732 24.7341 9.7866 24.7341 11.1673C24.7341 12.548 23.57 13.6673 22.1341 13.6673C20.6982 13.6673 19.5341 12.548 19.5341 11.1673C19.5341 9.7866 20.6982 8.66732 22.1341 8.66732ZM13.4674 8.66732C14.9033 8.66732 16.0674 9.7866 16.0674 11.1673C16.0674 12.548 14.9033 13.6673 13.4674 13.6673C12.0315 13.6673 10.8674 12.548 10.8674 11.1673C10.8674 9.7866 12.0315 8.66732 13.4674 8.66732Z" fill="#26A925"/>
</svg>
