<svg width="18" height="18" viewBox="0 0 18 18" fill="none" xmlns="http://www.w3.org/2000/svg">
<path d="M9 0C4.0295 0 0 4.02969 0 8.99971C0 9.62154 0.063 10.2288 0.1835 10.8151C1.073 12.6006 1.6885 11.4736 4.5 9.8333C7.3635 8.16262 4.5 12.1666 3.5 14.5C3.1925 15.2175 3.359 15.8247 3.78 16.3223C5.253 17.3747 7.052 18 9 18C13.9705 18 18 13.9709 18 8.99971C18 4.02969 13.9705 0 9 0ZM10.4245 14.2608C10.227 15.046 9.1945 15.3832 8.118 15.0139C7.0415 14.6452 6.329 13.7107 6.5265 12.925C6.724 12.1398 7.7565 11.8026 8.833 12.1725C9.9095 12.5406 10.622 13.4751 10.4245 14.2608Z" fill="#D99E82"/>
<path d="M5.00012 6.33205C5.82855 6.33205 6.50012 5.54854 6.50012 4.58204C6.50012 3.61554 5.82855 2.83203 5.00012 2.83203C4.17169 2.83203 3.50012 3.61554 3.50012 4.58204C3.50012 5.54854 4.17169 6.33205 5.00012 6.33205Z" fill="#5C913B"/>
<path d="M9.99988 5.16603C10.8283 5.16603 11.4999 4.38253 11.4999 3.41602C11.4999 2.44952 10.8283 1.66602 9.99988 1.66602C9.17145 1.66602 8.49988 2.44952 8.49988 3.41602C8.49988 4.38253 9.17145 5.16603 9.99988 5.16603Z" fill="#226699"/>
<path d="M14.4998 8.66603C15.3282 8.66603 15.9998 7.88253 15.9998 6.91602C15.9998 5.94952 15.3282 5.16602 14.4998 5.16602C13.6713 5.16602 12.9998 5.94952 12.9998 6.91602C12.9998 7.88253 13.6713 8.66603 14.4998 8.66603Z" fill="#DD2E44"/>
<path d="M14.0001 13.918C14.8285 13.918 15.5001 13.1345 15.5001 12.168C15.5001 11.2015 14.8285 10.418 14.0001 10.418C13.1717 10.418 12.5001 11.2015 12.5001 12.168C12.5001 13.1345 13.1717 13.918 14.0001 13.918Z" fill="#FFCC4D"/>
</svg>
