<svg width="24" height="24" viewBox="0 0 24 24" fill="none" xmlns="http://www.w3.org/2000/svg">
<g filter="url(#filter0_b_1264_36269)">
<g clip-path="url(#clip0_1264_36269)">
<rect width="24" height="24" rx="12" fill="#001C38" fill-opacity="0.6"/>
<mask id="mask0_1264_36269" style="mask-type:alpha" maskUnits="userSpaceOnUse" x="4" y="4" width="16" height="16">
<rect x="4" y="4" width="16" height="16" fill="#D9D9D9"/>
</mask>
<g mask="url(#mask0_1264_36269)">
<path d="M10.35 16.0156C10.1278 16.16 9.90271 16.1682 9.67471 16.0402C9.44715 15.9127 9.33337 15.7156 9.33337 15.4489V8.54891C9.33337 8.28225 9.44715 8.08491 9.67471 7.95691C9.90271 7.82936 10.1278 7.8378 10.35 7.98225L15.7834 11.4322C15.9834 11.5656 16.0834 11.7545 16.0834 11.9989C16.0834 12.2434 15.9834 12.4322 15.7834 12.5656L10.35 16.0156Z" fill="white"/>
</g>
</g>
</g>
<defs>
<filter id="filter0_b_1264_36269" x="-13.3333" y="-13.3333" width="50.6667" height="50.6667" filterUnits="userSpaceOnUse" color-interpolation-filters="sRGB">
<feFlood flood-opacity="0" result="BackgroundImageFix"/>
<feGaussianBlur in="BackgroundImageFix" stdDeviation="6.66667"/>
<feComposite in2="SourceAlpha" operator="in" result="effect1_backgroundBlur_1264_36269"/>
<feBlend mode="normal" in="SourceGraphic" in2="effect1_backgroundBlur_1264_36269" result="shape"/>
</filter>
<clipPath id="clip0_1264_36269">
<rect width="24" height="24" rx="12" fill="white"/>
</clipPath>
</defs>
</svg>
