<svg width="32" height="30" viewBox="0 0 32 30" fill="none" xmlns="http://www.w3.org/2000/svg">
<path fill-rule="evenodd" clip-rule="evenodd" d="M22.734 0C27.5204 0 31.4007 3.73097 31.4007 8.33333V21.6667C31.4007 26.269 27.5204 30 22.734 30H8.86735C4.08089 30 0.200684 26.269 0.200684 21.6667V8.33333C0.200684 3.73097 4.08089 0 8.86735 0H22.734ZM22.734 3.33333H8.86735C5.99548 3.33333 3.66735 5.57192 3.66735 8.33333V21.6667C3.66735 24.4282 5.99548 26.6667 8.86735 26.6667H22.734C25.606 26.6667 27.934 24.4282 27.934 21.6667V8.33333C27.934 5.57192 25.606 3.33333 22.734 3.33333ZM15.8007 8.33333C19.6298 8.33333 22.734 11.3181 22.734 15C22.734 18.6818 19.6298 21.6667 15.8007 21.6667C11.9715 21.6667 8.86735 18.6818 8.86735 15C8.86735 11.3181 11.9715 8.33333 15.8007 8.33333ZM15.8007 11.6667C13.886 11.6667 12.334 13.159 12.334 15C12.334 16.841 13.886 18.3333 15.8007 18.3333C17.7153 18.3333 19.2673 16.841 19.2673 15C19.2673 13.159 17.7153 11.6667 15.8007 11.6667ZM23.6007 5.83333C24.558 5.83333 25.334 6.57953 25.334 7.5C25.334 8.42047 24.558 9.16667 23.6007 9.16667C22.6434 9.16667 21.8673 8.42047 21.8673 7.5C21.8673 6.57953 22.6434 5.83333 23.6007 5.83333Z" fill="#7B34FB"/>
</svg>
