<svg width="18" height="18" viewBox="0 0 18 18" fill="none" xmlns="http://www.w3.org/2000/svg">
<path d="M0 5.625C0 5.625 0 3.375 2 3.375H16C16 3.375 18 3.375 18 5.625V15.75C18 15.75 18 18 16 18H2C2 18 0 18 0 15.75V5.625Z" fill="#31373D"/>
<path d="M10.5 16.3125C13.2614 16.3125 15.5 13.7941 15.5 10.6875C15.5 7.5809 13.2614 5.0625 10.5 5.0625C7.73858 5.0625 5.5 7.5809 5.5 10.6875C5.5 13.7941 7.73858 16.3125 10.5 16.3125Z" fill="#CCD6DD"/>
<path d="M10.5 15.1875C12.7091 15.1875 14.5 13.1728 14.5 10.6875C14.5 8.20222 12.7091 6.1875 10.5 6.1875C8.29086 6.1875 6.5 8.20222 6.5 10.6875C6.5 13.1728 8.29086 15.1875 10.5 15.1875Z" fill="#31373D"/>
<path d="M10.5 13.5C11.8807 13.5 13 12.2408 13 10.6875C13 9.1342 11.8807 7.875 10.5 7.875C9.11929 7.875 8 9.1342 8 10.6875C8 12.2408 9.11929 13.5 10.5 13.5Z" fill="#3B88C3"/>
<path d="M16.25 6.1875C16.6642 6.1875 17 5.80974 17 5.34375C17 4.87776 16.6642 4.5 16.25 4.5C15.8358 4.5 15.5 4.87776 15.5 5.34375C15.5 5.80974 15.8358 6.1875 16.25 6.1875Z" fill="white"/>
<path d="M8 5.0625L9.5 1.6875L6.5 2.8125L4.5 0L3.5 2.8125L0.5 2.25L2.5 5.625L0 7.875H3L2 11.25L5 9.5625L8 12.375L7.5 7.875L10.5 7.3125L8 5.0625Z" fill="#FFAC33"/>
<path d="M5 7.875L3.5 9L4 7.3125L2.5 6.75L4 5.625L2.5 3.9375H4.5L5 2.25L6 3.9375L7.5 3.375L6.5 5.0625L8 6.75L6.5 7.3125L7 9.5625L5 7.875Z" fill="white"/>
</svg>
