<svg width="30" height="30" viewBox="0 0 30 30" fill="none" xmlns="http://www.w3.org/2000/svg">
<path fill-rule="evenodd" clip-rule="evenodd" d="M12.5472 8.49702C12.2399 8.29607 11.8472 8.27972 11.5242 8.45443C11.2012 8.62913 11 8.96679 11 9.33399V20.6673C11 21.0345 11.2012 21.3722 11.5242 21.5469C11.8472 21.7216 12.2399 21.7052 12.5472 21.5043L21.2139 15.8376C21.4964 15.6529 21.6666 15.3382 21.6666 15.0007C21.6666 14.6631 21.4964 14.3484 21.2139 14.1637L12.5472 8.49702ZM18.8393 15.0007L13 18.8187V11.1826L18.8393 15.0007Z" fill="#001C38"/>
<path fill-rule="evenodd" clip-rule="evenodd" d="M0.333313 15.0007C0.333313 6.90065 6.89998 0.333984 15 0.333984C23.1 0.333984 29.6666 6.90065 29.6666 15.0007C29.6666 23.1007 23.1 29.6673 15 29.6673C6.89998 29.6673 0.333313 23.1007 0.333313 15.0007ZM15 2.33398C11.6406 2.33398 8.41875 3.6685 6.04329 6.04397C3.66783 8.41943 2.33331 11.6412 2.33331 15.0007C2.33331 18.3601 3.66783 21.5819 6.04329 23.9573C8.41875 26.3328 11.6406 27.6673 15 27.6673C18.3594 27.6673 21.5812 26.3328 23.9567 23.9573C26.3321 21.5819 27.6666 18.3601 27.6666 15.0007C27.6666 11.6412 26.3321 8.41943 23.9567 6.04397C21.5812 3.6685 18.3594 2.33398 15 2.33398Z" fill="#001C38"/>
</svg>
