<svg width="35" height="35" viewBox="0 0 35 35" fill="none" xmlns="http://www.w3.org/2000/svg">
<mask id="mask0_1493_1810" style="mask-type:alpha" maskUnits="userSpaceOnUse" x="0" y="0" width="35" height="35">
<rect x="17.6991" y="0.728516" width="24" height="24" transform="rotate(45 17.6991 0.728516)" fill="#D9D9D9"/>
</mask>
<g mask="url(#mask0_1493_1810)">
<path d="M10.628 24.7701C10.4277 24.5698 10.3278 24.3341 10.3282 24.063C10.3278 23.792 10.4277 23.5563 10.628 23.3559L21.3584 12.6256L15.8606 12.6079C15.6014 12.6079 15.3713 12.5136 15.1705 12.3251C14.9706 12.1365 14.8707 11.9008 14.8707 11.618C14.8707 11.3587 14.9709 11.1289 15.1712 10.9285C15.3716 10.7282 15.6014 10.628 15.8606 10.628L23.7802 10.628C23.9217 10.628 24.0485 10.6544 24.1607 10.7072C24.2724 10.7605 24.3754 10.8342 24.4697 10.9285C24.5639 11.0228 24.6377 11.1258 24.691 11.2375C24.7438 11.3497 24.7702 11.4765 24.7702 11.618L24.7702 19.5375C24.7702 19.7968 24.6731 20.0236 24.4789 20.2178C24.2842 20.4125 24.0513 20.5157 23.7802 20.5275C23.4974 20.5275 23.2586 20.4302 23.0639 20.2355C22.8697 20.0412 22.7726 19.8027 22.7726 19.5199L22.7726 14.0398L12.0423 24.7701C11.8419 24.9705 11.6064 25.0707 11.3359 25.0707C11.0643 25.0707 10.8284 24.9705 10.628 24.7701Z" fill="white"/>
</g>
</svg>
