<svg width="18" height="21" viewBox="0 0 18 21" fill="none" xmlns="http://www.w3.org/2000/svg">
<path fill-rule="evenodd" clip-rule="evenodd" d="M17.9996 3.4997C17.9997 4.20266 17.7881 4.88936 17.3924 5.47037C16.9967 6.05137 16.4352 6.49975 15.781 6.75712C15.1269 7.01449 14.4104 7.06891 13.7248 6.9133C13.0393 6.7577 12.4165 6.39927 11.9376 5.8847L6.8256 8.9057C7.05964 9.61626 7.05964 10.3831 6.8256 11.0937L11.9376 14.1147C12.5262 13.4836 13.3272 13.0922 14.1868 13.0156C15.0463 12.9391 15.9039 13.1828 16.5947 13.7C17.2856 14.2172 17.761 14.9714 17.9297 15.8177C18.0984 16.664 17.9484 17.5429 17.5087 18.2854C17.0689 19.0279 16.3703 19.5818 15.5471 19.8407C14.7238 20.0995 13.834 20.0451 13.0484 19.6879C12.2628 19.3307 11.6369 18.6959 11.2909 17.9053C10.9448 17.1147 10.9031 16.2242 11.1736 15.4047L6.0616 12.3847C5.58264 12.8991 4.95989 13.2574 4.27444 13.4129C3.58898 13.5685 2.87258 13.514 2.21851 13.2567C1.56445 12.9993 1.00301 12.551 0.607319 11.9701C0.211625 11.3892 0 10.7026 0 9.9997C0 9.29682 0.211625 8.61023 0.607319 8.02932C1.00301 7.44841 1.56445 7.00009 2.21851 6.74274C2.87258 6.48539 3.58898 6.43093 4.27444 6.58645C4.95989 6.74198 5.58264 7.10027 6.0616 7.6147L11.1736 4.5937V4.5947C11.016 4.11378 10.9646 3.6044 11.0229 3.10169C11.0812 2.59898 11.2478 2.11489 11.5113 1.6828C11.7747 1.25071 12.1288 0.88089 12.549 0.598842C12.9692 0.316793 13.4455 0.129224 13.9452 0.0490653C14.4449 -0.0310931 14.9561 -0.00193416 15.4434 0.134532C15.9307 0.270998 16.3827 0.511525 16.7681 0.839531C17.1535 1.16754 17.4631 1.57522 17.6757 2.03447C17.8884 2.49372 17.9988 2.99362 17.9996 3.4997ZM16.4996 3.4997C16.4996 4.03013 16.2889 4.53884 15.9138 4.91391C15.5387 5.28899 15.03 5.4997 14.4996 5.4997C13.9692 5.4997 13.4605 5.28899 13.0854 4.91391C12.7103 4.53884 12.4996 4.03013 12.4996 3.4997C12.4996 2.96927 12.7103 2.46056 13.0854 2.08549C13.4605 1.71041 13.9692 1.4997 14.4996 1.4997C15.03 1.4997 15.5387 1.71041 15.9138 2.08549C16.2889 2.46056 16.4996 2.96927 16.4996 3.4997ZM3.4996 11.9997C4.03003 11.9997 4.53874 11.789 4.91381 11.4139C5.28888 11.0388 5.4996 10.5301 5.4996 9.9997C5.4996 9.46927 5.28888 8.96056 4.91381 8.58549C4.53874 8.21041 4.03003 7.9997 3.4996 7.9997C2.96916 7.9997 2.46046 8.21041 2.08538 8.58549C1.71031 8.96056 1.4996 9.46927 1.4996 9.9997C1.4996 10.5301 1.71031 11.0388 2.08538 11.4139C2.46046 11.789 2.96916 11.9997 3.4996 11.9997ZM16.4996 16.4997C16.4996 17.0301 16.2889 17.5388 15.9138 17.9139C15.5387 18.289 15.03 18.4997 14.4996 18.4997C13.9692 18.4997 13.4605 18.289 13.0854 17.9139C12.7103 17.5388 12.4996 17.0301 12.4996 16.4997C12.4996 15.9693 12.7103 15.4606 13.0854 15.0855C13.4605 14.7104 13.9692 14.4997 14.4996 14.4997C15.03 14.4997 15.5387 14.7104 15.9138 15.0855C16.2889 15.4606 16.4996 15.9693 16.4996 16.4997Z" fill="white"/>
</svg>
