<svg width="14" height="16" viewBox="0 0 14 16" fill="none" xmlns="http://www.w3.org/2000/svg">
<path fill-rule="evenodd" clip-rule="evenodd" d="M13.7497 3.12502C13.7498 3.65224 13.5911 4.16727 13.2943 4.60302C12.9975 5.03877 12.5764 5.37506 12.0858 5.56809C11.5951 5.76111 11.0578 5.80193 10.5436 5.68522C10.0295 5.56852 9.5624 5.2997 9.2032 4.91377L5.3692 7.17952C5.54473 7.71244 5.54473 8.2876 5.3692 8.82052L9.2032 11.0863C9.64464 10.6129 10.2454 10.3194 10.8901 10.262C11.5348 10.2046 12.1779 10.3874 12.6961 10.7753C13.2142 11.1631 13.5707 11.7288 13.6973 12.3635C13.8238 12.9983 13.7113 13.6574 13.3815 14.2143C13.0517 14.7712 12.5277 15.1866 11.9103 15.3807C11.2929 15.5749 10.6255 15.5341 10.0363 15.2662C9.44713 14.9983 8.97769 14.5221 8.71816 13.9292C8.45864 13.3363 8.42731 12.6684 8.6302 12.0538L4.7962 9.78877C4.43698 10.1746 3.96992 10.4433 3.45583 10.56C2.94174 10.6766 2.40444 10.6358 1.91389 10.4427C1.42333 10.2497 1.00226 9.91349 0.70549 9.4778C0.408718 9.04212 0.25 8.52717 0.25 8.00002C0.25 7.47286 0.408718 6.95792 0.70549 6.52223C1.00226 6.08655 1.42333 5.75031 1.91389 5.5573C2.40444 5.36428 2.94174 5.32344 3.45583 5.44008C3.96992 5.55673 4.43698 5.82545 4.7962 6.21127L8.6302 3.94552V3.94627C8.51201 3.58558 8.47345 3.20355 8.51718 2.82651C8.5609 2.44948 8.68587 2.08641 8.88346 1.76235C9.08106 1.43828 9.34659 1.16091 9.66173 0.949375C9.97688 0.737839 10.3342 0.597162 10.7089 0.537043C11.0837 0.476924 11.467 0.498794 11.8325 0.601143C12.198 0.703493 12.537 0.883888 12.826 1.12989C13.1151 1.3759 13.3473 1.68166 13.5068 2.0261C13.6663 2.37054 13.7491 2.74546 13.7497 3.12502ZM12.6247 3.12502C12.6247 3.52284 12.4667 3.90437 12.1854 4.18568C11.9041 4.46698 11.5225 4.62502 11.1247 4.62502C10.7269 4.62502 10.3453 4.46698 10.064 4.18568C9.78273 3.90437 9.6247 3.52284 9.6247 3.12502C9.6247 2.72719 9.78273 2.34566 10.064 2.06436C10.3453 1.78305 10.7269 1.62502 11.1247 1.62502C11.5225 1.62502 11.9041 1.78305 12.1854 2.06436C12.4667 2.34566 12.6247 2.72719 12.6247 3.12502ZM2.8747 9.50002C3.27252 9.50002 3.65405 9.34198 3.93536 9.06068C4.21666 8.77937 4.3747 8.39784 4.3747 8.00002C4.3747 7.60219 4.21666 7.22066 3.93536 6.93936C3.65405 6.65805 3.27252 6.50002 2.8747 6.50002C2.47687 6.50002 2.09534 6.65805 1.81404 6.93936C1.53273 7.22066 1.3747 7.60219 1.3747 8.00002C1.3747 8.39784 1.53273 8.77937 1.81404 9.06068C2.09534 9.34198 2.47687 9.50002 2.8747 9.50002ZM12.6247 12.875C12.6247 13.2728 12.4667 13.6544 12.1854 13.9357C11.9041 14.217 11.5225 14.375 11.1247 14.375C10.7269 14.375 10.3453 14.217 10.064 13.9357C9.78273 13.6544 9.6247 13.2728 9.6247 12.875C9.6247 12.4772 9.78273 12.0957 10.064 11.8144C10.3453 11.5331 10.7269 11.375 11.1247 11.375C11.5225 11.375 11.9041 11.5331 12.1854 11.8144C12.4667 12.0957 12.6247 12.4772 12.6247 12.875Z" fill="#1B72C0"/>
</svg>
