<svg width="20" height="18" viewBox="0 0 20 18" fill="none" xmlns="http://www.w3.org/2000/svg">
<path fill-rule="evenodd" clip-rule="evenodd" d="M8.48632 1.11389C9.16074 -0.0483806 10.8392 -0.0483773 11.5136 1.11389L13.5789 4.67325C13.7693 5.00133 14.0984 5.22522 14.4734 5.28187L17.9031 5.79988C19.3981 6.02568 19.9225 7.91325 18.7582 8.87784L16.2593 10.9482C15.9085 11.2387 15.7436 11.6971 15.8288 12.1445L16.5288 15.8205C16.803 17.2605 15.2914 18.3793 13.9944 17.6963L10.5823 15.8998C10.2178 15.7078 9.7821 15.7078 9.41757 15.8998L6.00554 17.6963C4.70853 18.3793 3.1969 17.2605 3.4711 15.8205L4.17108 12.1445C4.25628 11.6971 4.09136 11.2387 3.74062 10.9482L1.24172 8.87784C0.077435 7.91325 0.601838 6.02568 2.09683 5.79988L5.52648 5.28187C5.90154 5.22522 6.23059 5.00133 6.42097 4.67325L8.48632 1.11389ZM10.2162 1.86672C10.1198 1.70068 9.88006 1.70068 9.78372 1.86672L7.71837 5.42608C7.29954 6.14786 6.57563 6.64042 5.7505 6.76505L2.32085 7.28306C2.10728 7.31531 2.03236 7.58497 2.19869 7.72276L4.69759 9.79308C5.46922 10.4324 5.83205 11.4408 5.6446 12.4251L4.94462 16.1011C4.90545 16.3068 5.1214 16.4666 5.30669 16.3691L8.71872 14.5725C9.52069 14.1502 10.4792 14.1502 11.2812 14.5725L14.6932 16.3691C14.8785 16.4666 15.0945 16.3068 15.0553 16.1011L14.3553 12.4251C14.1679 11.4408 14.5307 10.4324 15.3023 9.79308L17.8012 7.72276C17.9675 7.58496 17.8926 7.31531 17.6791 7.28306L14.2494 6.76505C13.4243 6.64042 12.7004 6.14786 12.2815 5.42608L10.2162 1.86672Z" fill="#F9A219"/>
</svg>
