<svg width="22" height="20" viewBox="0 0 22 20" fill="none" xmlns="http://www.w3.org/2000/svg">
<path d="M11.865 0.996161C11.4796 0.33201 10.5205 0.332008 10.1351 0.996161L7.42107 5.67347C7.2307 6.00155 6.90165 6.22544 6.52659 6.28209L1.44027 7.05032C0.585991 7.17935 0.286331 8.25796 0.951637 8.80916L4.74073 11.9484C5.09147 12.239 5.25639 12.6973 5.17119 13.1448L4.18002 18.3499C4.02334 19.1727 4.88712 19.812 5.62827 19.4218L10.4177 16.9C10.7822 16.708 11.2179 16.708 11.5824 16.9L16.3718 19.4218C17.113 19.812 17.9768 19.1727 17.8201 18.3499L16.8289 13.1448C16.7437 12.6973 16.9087 12.239 17.2594 11.9484L21.0485 8.80916C21.7138 8.25796 21.4141 7.17935 20.5598 7.05032L15.4735 6.28209C15.0985 6.22544 14.7694 6.00155 14.579 5.67347L11.865 0.996161Z" fill="black"/>
<path d="M11.865 0.996161C11.4796 0.33201 10.5205 0.332008 10.1351 0.996161L7.42107 5.67347C7.2307 6.00155 6.90165 6.22544 6.52659 6.28209L1.44027 7.05032C0.585991 7.17935 0.286331 8.25796 0.951637 8.80916L4.74073 11.9484C5.09147 12.239 5.25639 12.6973 5.17119 13.1448L4.18002 18.3499C4.02334 19.1727 4.88712 19.812 5.62827 19.4218L10.4177 16.9C10.7822 16.708 11.2179 16.708 11.5824 16.9L16.3718 19.4218C17.113 19.812 17.9768 19.1727 17.8201 18.3499L16.8289 13.1448C16.7437 12.6973 16.9087 12.239 17.2594 11.9484L21.0485 8.80916C21.7138 8.25796 21.4141 7.17935 20.5598 7.05032L15.4735 6.28209C15.0985 6.22544 14.7694 6.00155 14.579 5.67347L11.865 0.996161Z" fill="url(#paint0_linear_2773_7252)"/>
<defs>
<linearGradient id="paint0_linear_2773_7252" x1="2.07736" y1="17.2949" x2="19.2641" y2="7.07023" gradientUnits="userSpaceOnUse">
<stop offset="0.0916435" stop-color="#F7971E"/>
<stop offset="1" stop-color="#FFD200"/>
</linearGradient>
</defs>
</svg>
