<svg width="32" height="32" viewBox="0 0 32 32" fill="none" xmlns="http://www.w3.org/2000/svg">
<path d="M16.0393 3.5641C17.2348 3.10424 18.5884 3.32166 19.5607 4.11L19.7781 4.302L27.9669 12.1759C28.8774 13.0515 29.2028 14.3332 28.8323 15.5031L28.7344 15.7708L24.6349 25.6252C24.1678 26.7483 23.1042 27.5412 21.8539 27.6935L13.0502 28.7497C12.8238 28.776 12.5857 28.8076 12.3382 28.8436L11.5695 28.9641C11.4374 28.9862 11.3035 29.0092 11.1681 29.033L9.91519 29.268L9.05613 29.4428L7.76509 29.7215L6.10892 30.1015L3.41921 30.7614L2.29944 31.0515C1.75242 31.1967 1.08418 31.0893 0.596161 30.62C0.162381 30.2029 0.0258882 29.6488 0.107043 29.1615L0.165752 28.9187L0.677797 27.0652L1.13549 25.3193L1.5306 23.7269L1.82044 22.4855L2.00223 21.6594L2.24661 20.4547L2.38417 19.6931L2.49625 18.9797L3.63974 10.1799C3.78609 9.07018 4.49982 8.11348 5.52749 7.6195L5.7908 7.50582L16.0393 3.5641ZM17.3268 6.65902L7.07869 10.6006L6.06634 18.3864C6.0376 18.6125 6.00968 18.833 5.98281 19.0462C5.84901 20.1075 5.60345 21.3924 5.31671 22.7011L5.01887 24.0103L10.7183 18.5302C10.4094 17.418 10.7087 16.1823 11.616 15.3098C12.9699 14.008 15.1648 14.008 16.5186 15.3098C17.8725 16.6115 17.8725 18.7222 16.5186 20.0238C15.6113 20.8963 14.3262 21.184 13.1698 20.887L7.47006 26.3675L8.15005 26.2219L9.50921 25.9468C10.4073 25.7731 11.2789 25.6219 12.0627 25.5135L21.4164 24.3868L25.5156 14.5328L17.3268 6.65902ZM21.4213 1.16784C22.0461 0.567037 23.0292 0.520822 23.7093 1.02919L23.8726 1.16784L31.2264 8.2389C31.9033 8.88979 31.9033 9.94506 31.2264 10.5959C30.6016 11.1967 29.6184 11.243 28.9384 10.7346L28.7751 10.5959L21.4213 3.52485C20.7443 2.87399 20.7443 1.8187 21.4213 1.16784Z" fill="#26A925"/>
</svg>
