<svg width="18" height="18" viewBox="0 0 18 18" fill="none" xmlns="http://www.w3.org/2000/svg">
<path d="M17 13.8575C16.7915 13.2797 16.552 12.6527 16 12.6527H15.5C16.052 12.6527 16.5 12.1133 16.5 11.4479V1.20479C16.5 0.539397 16.052 0 15.5 0H2.5C1.948 0 1.5 0.539397 1.5 1.20479V11.4479C1.5 12.1133 1.948 12.6527 2.5 12.6527H2C1.448 12.6527 1.1665 13.2551 1 13.8575L0 16.7945C0 17.4605 0.448 17.9999 1 17.9999H17C17.552 17.9999 18 17.4605 18 16.7951L17 13.8575Z" fill="#CCD6DD"/>
<path d="M0.00402832 16.8457L0.00702832 16.8799L0.0920283 17.2951C0.250028 17.7103 0.596028 18.0007 1.00003 18.0007H17C17.538 18.0007 17.9735 17.4877 17.996 16.8457H0.00402832Z" fill="#9AAAB4"/>
<path d="M15.5 10.8446C15.5 11.1776 15.2765 11.447 15 11.447H3C2.724 11.447 2.5 11.1776 2.5 10.8446V1.80747C2.5 1.47448 2.724 1.20508 3 1.20508H15C15.2765 1.20508 15.5 1.47508 15.5 1.80747V10.8446Z" fill="#5DADEC"/>
<path d="M16.4527 15.024L16.0727 13.719C15.9532 13.443 15.7552 13.2168 15.4787 13.2168H2.55469C2.27869 13.2168 2.10169 13.4616 1.97669 13.8384L1.63269 15.0246C1.52319 15.3822 1.85669 15.627 2.13269 15.627H5.92169C5.92169 15.627 6.39019 15.5988 6.47319 15.2622C6.56919 14.8734 6.68069 14.2878 6.70469 14.1846C6.74169 14.0262 6.89869 13.866 7.13269 13.866H11.4217C11.6717 13.866 11.7947 14.0178 11.8272 14.2056C11.8482 14.328 11.9832 14.8902 12.0462 15.2748C12.1017 15.6174 12.6567 15.6264 12.6567 15.6264H15.9537C16.2292 15.6264 16.5622 15.3438 16.4527 15.024Z" fill="#AEBBC1"/>
<path d="M11.1871 16.2687H7.2966C7.1091 16.2687 7.0276 16.0629 7.0546 15.8637C7.0816 15.6651 7.2341 14.7879 7.2461 14.6859C7.2576 14.5833 7.3831 14.4609 7.5081 14.4609H11.0156C11.1641 14.4609 11.2606 14.5587 11.2906 14.7543C11.3201 14.9505 11.4416 15.7389 11.4511 15.9189C11.4606 16.0995 11.3666 16.2687 11.1871 16.2687Z" fill="#9AAAB4"/>
</svg>
