<svg width="34" height="36" viewBox="0 0 34 36" fill="none" xmlns="http://www.w3.org/2000/svg">
<rect x="0.0404053" y="0.0869141" width="33.9192" height="35.8267" rx="16.9596" fill="#33CCFF"/>
<path d="M25.4189 12.3281C24.8588 12.5829 24.27 12.7604 23.6671 12.8561C23.949 12.805 24.3638 12.2685 24.5289 12.0514C24.7797 11.7239 24.9709 11.35 25.0927 10.9487C25.0927 10.9189 25.1209 10.8764 25.0927 10.8551C25.0785 10.8469 25.0626 10.8426 25.0464 10.8426C25.0302 10.8426 25.0143 10.8469 25.0001 10.8551C24.3453 11.2299 23.6485 11.516 22.9261 11.7066C22.9009 11.7147 22.8741 11.7154 22.8486 11.7087C22.823 11.7019 22.7997 11.6879 22.7811 11.6682C22.7249 11.5974 22.6643 11.5306 22.5999 11.4681C22.3052 11.189 21.9709 10.9606 21.6092 10.7912C21.1209 10.5794 20.5935 10.4877 20.0668 10.523C19.5557 10.5571 19.0568 10.702 18.6009 10.9487C18.152 11.2088 17.7575 11.5622 17.4411 11.9875C17.1082 12.4254 16.8679 12.9334 16.7363 13.4776C16.6278 13.9953 16.6155 14.5303 16.7001 15.0529C16.7001 15.1423 16.7001 15.1551 16.6276 15.1423C13.7562 14.6953 11.4004 13.6181 9.47538 11.3064C9.39081 11.2042 9.34651 11.2042 9.27805 11.3064C8.4404 12.6517 8.84714 14.7804 9.8942 15.832C10.0352 15.9725 10.1801 16.1087 10.3332 16.2364C9.85309 16.2004 9.38475 16.0629 8.95588 15.832C8.87533 15.7766 8.83103 15.8064 8.82701 15.9086C8.81559 16.0503 8.81559 16.1927 8.82701 16.3344C8.91104 17.0132 9.16411 17.6564 9.56035 18.1979C9.95659 18.7395 10.4818 19.1601 11.0822 19.4167C11.2286 19.483 11.3811 19.5329 11.5373 19.5657C11.0929 19.6582 10.637 19.6726 10.1882 19.6083C10.0915 19.587 10.0553 19.6424 10.0915 19.7403C10.6835 21.4432 11.9682 21.9627 12.9105 22.2522C13.0394 22.2734 13.1683 22.2734 13.3133 22.3075C13.3133 22.3075 13.3133 22.3075 13.2891 22.333C13.0112 22.8695 11.8876 23.2314 11.3722 23.4187C10.4313 23.776 9.42815 23.9125 8.43235 23.8189C8.27529 23.7933 8.23904 23.7976 8.19877 23.8189C8.1585 23.8402 8.19877 23.887 8.24307 23.9296C8.44443 24.0701 8.64579 24.1935 8.8552 24.3127C9.47862 24.6722 10.1377 24.9578 10.8205 25.1642C14.3563 26.1945 18.3351 25.4367 20.989 22.6481C23.0751 20.4598 23.808 17.4413 23.808 14.4185C23.808 14.3036 23.9409 14.2355 24.0174 14.1758C24.5452 13.7411 25.0105 13.2277 25.3988 12.6517C25.466 12.5658 25.5005 12.4565 25.4954 12.3452C25.4954 12.2813 25.4954 12.2941 25.4189 12.3281Z" fill="white"/>
</svg>
