<svg width="44" height="44" viewBox="0 0 44 44" fill="none" xmlns="http://www.w3.org/2000/svg">
<path fill-rule="evenodd" clip-rule="evenodd" d="M14.75 31.9993C14.5511 31.9993 14.3603 31.9203 14.2197 31.7797C14.079 31.639 14 31.4483 14 31.2493C14 31.0504 14.079 30.8597 14.2197 30.719C14.3603 30.5784 14.5511 30.4993 14.75 30.4993H29.25C29.4489 30.4993 29.6397 30.5784 29.7803 30.719C29.921 30.8597 30 31.0504 30 31.2493C30 31.4483 29.921 31.639 29.7803 31.7797C29.6397 31.9203 29.4489 31.9993 29.25 31.9993H14.75ZM14.97 18.4693C14.8375 18.6115 14.7654 18.7996 14.7688 18.9939C14.7723 19.1882 14.851 19.3735 14.9884 19.511C15.1258 19.6484 15.3112 19.7271 15.5055 19.7305C15.6998 19.7339 15.8878 19.6618 16.03 19.5293L21 14.5593V26.7493C21 26.9483 21.079 27.139 21.2197 27.2797C21.3603 27.4203 21.5511 27.4993 21.75 27.4993C21.9489 27.4993 22.1397 27.4203 22.2803 27.2797C22.421 27.139 22.5 26.9483 22.5 26.7493V14.5593L27.47 19.5293C27.5387 19.603 27.6215 19.6621 27.7135 19.7031C27.8055 19.7441 27.9048 19.7662 28.0055 19.7679C28.1062 19.7697 28.2062 19.7512 28.2996 19.7135C28.393 19.6757 28.4778 19.6196 28.549 19.5484C28.6203 19.4772 28.6764 19.3923 28.7141 19.2989C28.7518 19.2055 28.7704 19.1055 28.7686 19.0048C28.7668 18.9041 28.7448 18.8048 28.7038 18.7128C28.6628 18.6208 28.6037 18.538 28.53 18.4693L22.28 12.2193C22.1394 12.0789 21.9488 12 21.75 12C21.5512 12 21.3606 12.0789 21.22 12.2193L14.97 18.4693Z" fill="#1B72C0"/>
<rect x="0.5" y="0.5" width="43" height="43" rx="21.5" stroke="#1B72C0"/>
</svg>
