<svg width="13" height="16" viewBox="0 0 13 16" fill="none" xmlns="http://www.w3.org/2000/svg">
<path fill-rule="evenodd" clip-rule="evenodd" d="M1.0625 15.4995C0.913316 15.4995 0.770242 15.4402 0.664752 15.3348C0.559263 15.2293 0.5 15.0862 0.5 14.937C0.5 14.7878 0.559263 14.6447 0.664752 14.5393C0.770242 14.4338 0.913316 14.3745 1.0625 14.3745H11.9375C12.0867 14.3745 12.2298 14.4338 12.3352 14.5393C12.4407 14.6447 12.5 14.7878 12.5 14.937C12.5 15.0862 12.4407 15.2293 12.3352 15.3348C12.2298 15.4402 12.0867 15.4995 11.9375 15.4995H1.0625ZM1.2275 5.35201C1.12814 5.45864 1.07405 5.59967 1.07662 5.7454C1.07919 5.89112 1.13822 6.03016 1.24128 6.13322C1.34434 6.23628 1.48338 6.29531 1.62911 6.29789C1.77483 6.30046 1.91587 6.24636 2.0225 6.147L5.75 2.4195V11.562C5.75 11.7112 5.80926 11.8543 5.91475 11.9598C6.02024 12.0652 6.16332 12.1245 6.3125 12.1245C6.46168 12.1245 6.60476 12.0652 6.71025 11.9598C6.81574 11.8543 6.875 11.7112 6.875 11.562V2.4195L10.6025 6.147C10.654 6.20227 10.7161 6.2466 10.7851 6.27734C10.8541 6.30808 10.9286 6.32462 11.0041 6.32595C11.0796 6.32728 11.1547 6.31339 11.2247 6.2851C11.2947 6.25681 11.3584 6.2147 11.4118 6.16128C11.4652 6.10787 11.5073 6.04424 11.5356 5.9742C11.5639 5.90416 11.5778 5.82914 11.5764 5.75361C11.5751 5.67809 11.5586 5.6036 11.5278 5.5346C11.4971 5.4656 11.4528 5.4035 11.3975 5.35201L6.71 0.664505C6.60453 0.559167 6.46156 0.5 6.3125 0.5C6.16344 0.5 6.02047 0.559167 5.915 0.664505L1.2275 5.35201Z" fill="#1B72C0"/>
</svg>
