<svg width="30" height="30" viewBox="0 0 30 30" fill="none" xmlns="http://www.w3.org/2000/svg">
<path d="M9.95842 8.45605C10.2252 8.4632 10.521 8.47763 10.8025 9.10235C10.9891 9.51824 11.3035 10.2839 11.5596 10.9075C11.7589 11.3929 11.9229 11.7922 11.9639 11.874C12.0577 12.0606 12.1154 12.276 11.9928 12.5273C11.9783 12.5569 11.9646 12.5853 11.9515 12.6126C11.8531 12.8167 11.7831 12.962 11.6177 13.152C11.5497 13.2301 11.4788 13.3157 11.4082 13.401C11.284 13.5511 11.1607 13.7001 11.0549 13.8055C10.8674 13.992 10.6725 14.1932 10.8889 14.5665C11.1055 14.9399 11.863 16.1677 12.9811 17.1586C14.1833 18.2289 15.2286 18.6799 15.7571 18.9079C15.8596 18.9522 15.9428 18.988 16.0037 19.0184C16.379 19.2051 16.6025 19.1763 16.8189 18.9251C17.0355 18.6737 17.7568 17.8335 18.0094 17.4602C18.2546 17.0869 18.5071 17.1443 18.8534 17.2736C19.1996 17.4028 21.0465 18.3075 21.4215 18.4942C21.4957 18.5311 21.565 18.5643 21.6293 18.5951C21.8903 18.7203 22.0677 18.8054 22.143 18.9322C22.2367 19.0901 22.2367 19.8369 21.9266 20.7129C21.6092 21.5889 20.0798 22.429 19.3872 22.4936C19.3216 22.4998 19.2564 22.5077 19.1892 22.5158C18.5545 22.5926 17.7488 22.6901 14.8784 21.5602C11.3413 20.1693 9.00653 16.7183 8.53448 16.0206C8.49721 15.9655 8.47155 15.9276 8.45783 15.9092L8.44984 15.8985C8.23508 15.6111 6.9212 13.8531 6.9212 12.0392C6.9212 10.3037 7.7761 9.40019 8.16604 8.98808C8.19075 8.96196 8.2136 8.93782 8.23424 8.91556C8.58046 8.54223 8.98454 8.4489 9.23699 8.4489C9.48956 8.4489 9.74201 8.4489 9.95842 8.45605Z" fill="#1B7B1A"/>
<path fill-rule="evenodd" clip-rule="evenodd" d="M0.185004 29.1083C0.0656872 29.5415 0.46015 29.9412 0.894803 29.8277L7.61384 28.0727C9.73478 29.2215 12.1227 29.8318 14.5539 29.8318H14.5611C22.5615 29.8318 29.0831 23.348 29.0831 15.3779C29.0831 11.5149 27.5752 7.8816 24.8339 5.15301C22.0926 2.42455 18.4494 0.916687 14.561 0.916687C6.56068 0.916687 0.0390634 7.40051 0.0390634 15.3707C0.0381543 17.9063 0.70741 20.3974 1.97964 22.5941L0.185004 29.1083ZM4.08858 23.1751C4.24436 22.6096 4.16654 22.0053 3.87259 21.4978C2.7932 19.6341 2.22579 17.5205 2.22656 15.3707C2.22656 8.619 7.75841 3.10419 14.561 3.10419C17.8712 3.10419 20.9595 4.38312 23.2907 6.70343C25.6193 9.02118 26.8956 12.0964 26.8956 15.3779C26.8956 22.1295 21.3638 27.6443 14.5611 27.6443H14.5539C12.4881 27.6443 10.4582 27.1256 8.65571 26.1492C8.16786 25.885 7.59783 25.816 7.06102 25.9562L3.03251 27.0084L4.08858 23.1751Z" fill="#1B7B1A"/>
</svg>
