<svg width="34" height="36" viewBox="0 0 34 36" fill="none" xmlns="http://www.w3.org/2000/svg">
<rect x="0.0404053" y="0.0869141" width="33.9192" height="35.8267" rx="16.9596" fill="#00D95F"/>
<path d="M8.52075 26.2935L9.73756 21.5147C8.75624 19.6531 8.44446 17.4808 8.85944 15.3963C9.27443 13.3119 10.3883 11.4552 11.9968 10.1669C13.6052 8.87859 15.6003 8.24514 17.6159 8.38277C19.6315 8.52039 21.5324 9.41987 22.9698 10.9161C24.4073 12.4124 25.2848 14.4051 25.4414 16.5286C25.598 18.652 25.0231 20.7638 23.8223 22.4764C22.6215 24.189 20.8753 25.3875 18.9041 25.8521C16.9329 26.3166 14.8689 26.016 13.091 25.0054L8.52075 26.2935ZM13.3114 23.2171L13.594 23.3939C14.8818 24.1988 16.386 24.5319 17.872 24.3412C19.3581 24.1506 20.7426 23.4469 21.8099 22.3399C22.8771 21.2329 23.5671 19.7847 23.7723 18.221C23.9775 16.6573 23.6864 15.0659 22.9443 13.6949C22.2023 12.3238 21.051 11.2502 19.6698 10.6412C18.2887 10.0321 16.7553 9.92201 15.3086 10.3279C13.8619 10.7338 12.5831 11.633 11.6716 12.8852C10.7602 14.1375 10.2671 15.6725 10.2693 17.2511C10.2681 18.56 10.6114 19.8436 11.261 20.959L11.4382 21.2672L10.758 23.9344L13.3114 23.2171Z" fill="white"/>
<path fill-rule="evenodd" clip-rule="evenodd" d="M20.1709 18.4786C20.0052 18.3376 19.8112 18.2384 19.6036 18.1885C19.3961 18.1387 19.1804 18.1394 18.9732 18.1906C18.6618 18.327 18.4606 18.8423 18.2594 19.0999C18.217 19.1617 18.1546 19.205 18.0841 19.2217C18.0135 19.2385 17.9396 19.2275 17.8762 19.1908C16.7362 18.72 15.7806 17.8566 15.1647 16.7408C15.1121 16.6712 15.0873 16.5828 15.0953 16.4942C15.1034 16.4056 15.1437 16.3238 15.2078 16.266C15.4322 16.0317 15.597 15.7415 15.6869 15.4223C15.7068 15.0702 15.6303 14.7195 15.4665 14.412C15.3398 13.9809 15.0988 13.597 14.7718 13.3057C14.6032 13.2257 14.4162 13.1989 14.2335 13.2285C14.0507 13.2581 13.88 13.3428 13.7419 13.4724C13.5021 13.6906 13.3118 13.9626 13.1849 14.2686C13.0581 14.5746 12.9979 14.9067 13.0089 15.2405C13.0096 15.4279 13.0322 15.6145 13.076 15.7962C13.1872 16.2326 13.3583 16.6495 13.5838 17.0338C13.7465 17.3282 13.924 17.6131 14.1155 17.8875C14.7381 18.7887 15.5207 19.5539 16.4198 20.1405C16.871 20.4387 17.3532 20.6811 17.857 20.8629C18.3803 21.1131 18.958 21.2091 19.5289 21.1408C19.8542 21.0888 20.1624 20.9534 20.4263 20.7464C20.6903 20.5394 20.902 20.2672 21.0427 19.9536C21.1254 19.7642 21.1505 19.5525 21.1146 19.3474C21.0284 18.9282 20.4966 18.6806 20.1709 18.4786Z" fill="white"/>
</svg>
