<svg width="15" height="16" viewBox="0 0 15 16" fill="none" xmlns="http://www.w3.org/2000/svg">
<path fill-rule="evenodd" clip-rule="evenodd" d="M14.2497 3.12502C14.2498 3.65224 14.0911 4.16727 13.7943 4.60302C13.4975 5.03877 13.0764 5.37506 12.5858 5.56809C12.0951 5.76111 11.5578 5.80193 11.0436 5.68522C10.5295 5.56852 10.0624 5.2997 9.7032 4.91377L5.8692 7.17952C6.04473 7.71244 6.04473 8.2876 5.8692 8.82052L9.7032 11.0863C10.1446 10.6129 10.7454 10.3194 11.3901 10.262C12.0348 10.2046 12.6779 10.3874 13.1961 10.7753C13.7142 11.1631 14.0707 11.7288 14.1973 12.3635C14.3238 12.9983 14.2113 13.6574 13.8815 14.2143C13.5517 14.7712 13.0277 15.1866 12.4103 15.3807C11.7929 15.5749 11.1255 15.5341 10.5363 15.2662C9.94713 14.9983 9.47769 14.5221 9.21816 13.9292C8.95864 13.3363 8.92731 12.6684 9.1302 12.0538L5.2962 9.78877C4.93698 10.1746 4.46992 10.4433 3.95583 10.56C3.44174 10.6766 2.90444 10.6358 2.41389 10.4427C1.92333 10.2497 1.50226 9.91349 1.20549 9.4778C0.908718 9.04212 0.75 8.52717 0.75 8.00002C0.75 7.47286 0.908718 6.95792 1.20549 6.52223C1.50226 6.08655 1.92333 5.75031 2.41389 5.5573C2.90444 5.36428 3.44174 5.32344 3.95583 5.44008C4.46992 5.55673 4.93698 5.82545 5.2962 6.21127L9.1302 3.94552V3.94627C9.01201 3.58558 8.97345 3.20355 9.01718 2.82651C9.0609 2.44948 9.18587 2.08641 9.38346 1.76235C9.58106 1.43828 9.84659 1.16091 10.1617 0.949375C10.4769 0.737839 10.8342 0.597162 11.2089 0.537043C11.5837 0.476924 11.967 0.498794 12.3325 0.601143C12.698 0.703493 13.037 0.883888 13.326 1.12989C13.6151 1.3759 13.8473 1.68166 14.0068 2.0261C14.1663 2.37054 14.2491 2.74546 14.2497 3.12502ZM13.1247 3.12502C13.1247 3.52284 12.9667 3.90437 12.6854 4.18568C12.4041 4.46698 12.0225 4.62502 11.6247 4.62502C11.2269 4.62502 10.8453 4.46698 10.564 4.18568C10.2827 3.90437 10.1247 3.52284 10.1247 3.12502C10.1247 2.72719 10.2827 2.34566 10.564 2.06436C10.8453 1.78305 11.2269 1.62502 11.6247 1.62502C12.0225 1.62502 12.4041 1.78305 12.6854 2.06436C12.9667 2.34566 13.1247 2.72719 13.1247 3.12502ZM3.3747 9.50002C3.77252 9.50002 4.15405 9.34198 4.43536 9.06068C4.71666 8.77937 4.8747 8.39784 4.8747 8.00002C4.8747 7.60219 4.71666 7.22066 4.43536 6.93936C4.15405 6.65805 3.77252 6.50002 3.3747 6.50002C2.97687 6.50002 2.59534 6.65805 2.31404 6.93936C2.03273 7.22066 1.8747 7.60219 1.8747 8.00002C1.8747 8.39784 2.03273 8.77937 2.31404 9.06068C2.59534 9.34198 2.97687 9.50002 3.3747 9.50002ZM13.1247 12.875C13.1247 13.2728 12.9667 13.6544 12.6854 13.9357C12.4041 14.217 12.0225 14.375 11.6247 14.375C11.2269 14.375 10.8453 14.217 10.564 13.9357C10.2827 13.6544 10.1247 13.2728 10.1247 12.875C10.1247 12.4772 10.2827 12.0957 10.564 11.8144C10.8453 11.5331 11.2269 11.375 11.6247 11.375C12.0225 11.375 12.4041 11.5331 12.6854 11.8144C12.9667 12.0957 13.1247 12.4772 13.1247 12.875Z" fill="#1B72C0"/>
</svg>
