<svg width="32" height="32" viewBox="0 0 32 32" fill="none" xmlns="http://www.w3.org/2000/svg">
<rect width="32" height="32" rx="4" fill="#EEFCFF"/>
<path d="M24.125 13.0656C24.1255 11.7032 23.7808 10.3629 23.123 9.16987C22.4653 7.97681 21.5159 6.96988 20.3636 6.2431C19.2113 5.51631 17.8936 5.09338 16.5336 5.01378C15.1735 4.93417 13.8155 5.20051 12.5863 5.7879C11.3571 6.3753 10.2967 7.2646 9.50427 8.37278C8.71182 9.48097 8.21311 10.7719 8.05469 12.125C7.89628 13.4781 8.08333 14.8493 8.59838 16.1106C9.11343 17.3718 9.93969 18.482 11 19.3375V26.5656C11.0005 26.6608 11.0247 26.7545 11.0706 26.838C11.1164 26.9214 11.1824 26.9922 11.2625 27.0437C11.3451 27.094 11.4389 27.123 11.5355 27.1279C11.6321 27.1328 11.7284 27.1135 11.8156 27.0718L16.0625 24.9437L20.3094 27.0718C20.3888 27.1082 20.4751 27.1274 20.5625 27.1281C20.6683 27.1278 20.772 27.0986 20.8625 27.0437C20.9426 26.9922 21.0086 26.9214 21.0544 26.838C21.1003 26.7545 21.1245 26.6608 21.125 26.5656V19.3375C22.0618 18.5825 22.8175 17.6273 23.3367 16.5419C23.8558 15.4566 24.1252 14.2687 24.125 13.0656ZM9.125 13.0656C9.125 11.6935 9.53188 10.3522 10.2942 9.21131C11.0565 8.07044 12.14 7.18125 13.4076 6.65616C14.6753 6.13108 16.0702 5.99369 17.4159 6.26138C18.7617 6.52906 19.9978 7.1898 20.9681 8.16002C21.9383 9.13025 22.599 10.3664 22.8667 11.7121C23.1344 13.0579 22.997 14.4528 22.4719 15.7204C21.9468 16.9881 21.0576 18.0716 19.9168 18.8339C18.7759 19.5962 17.4346 20.0031 16.0625 20.0031C14.2233 20.0006 12.4602 19.2689 11.1597 17.9684C9.85919 16.6679 9.12748 14.9048 9.125 13.0656ZM20 25.6562L16.3156 23.8093C16.2363 23.7724 16.15 23.7533 16.0625 23.7533C15.9751 23.7533 15.8887 23.7724 15.8094 23.8093L12.125 25.6562V20.0968C13.3273 20.7728 14.6833 21.1278 16.0625 21.1278C17.4417 21.1278 18.7978 20.7728 20 20.0968V25.6562ZM16.0625 18.1281C17.0638 18.1281 18.0426 17.8312 18.8751 17.2749C19.7076 16.7186 20.3565 15.928 20.7396 15.0029C21.1228 14.0779 21.2231 13.06 21.0277 12.0779C20.8324 11.0959 20.3502 10.1939 19.6422 9.48585C18.9342 8.77785 18.0322 8.29569 17.0501 8.10035C16.0681 7.90501 15.0502 8.00527 14.1252 8.38844C13.2001 8.7716 12.4095 9.42048 11.8532 10.253C11.2969 11.0855 11 12.0643 11 13.0656C11 14.4082 11.5334 15.6959 12.4828 16.6453C13.4322 17.5947 14.7198 18.1281 16.0625 18.1281ZM16.0625 9.12808C16.8413 9.12808 17.6025 9.35901 18.2501 9.79167C18.8976 10.2243 19.4023 10.8393 19.7003 11.5588C19.9983 12.2782 20.0763 13.0699 19.9243 13.8337C19.7724 14.5975 19.3974 15.2991 18.8467 15.8498C18.2961 16.4005 17.5945 16.7755 16.8307 16.9274C16.0669 17.0793 15.2752 17.0014 14.5557 16.7034C13.8362 16.4053 13.2212 15.9007 12.7886 15.2531C12.3559 14.6056 12.125 13.8443 12.125 13.0656C12.125 12.0213 12.5398 11.0198 13.2783 10.2813C14.0167 9.54292 15.0182 9.12808 16.0625 9.12808Z" fill="#0055BF"/>
</svg>
