<svg width="32" height="32" viewBox="0 0 32 32" fill="none" xmlns="http://www.w3.org/2000/svg">
<rect width="32" height="32" rx="4" fill="#EEFCFF"/>
<path fill-rule="evenodd" clip-rule="evenodd" d="M5 8.4375C5 8.25516 5.07243 8.0803 5.20136 7.95137C5.3303 7.82243 5.50516 7.75 5.6875 7.75H12.5598C13.9952 7.75 15.2593 8.48333 15.9982 9.59617C16.3742 9.02817 16.8852 8.56225 17.4854 8.24007C18.0856 7.9179 18.7563 7.74952 19.4375 7.75H26.3125C26.4948 7.75 26.6697 7.82243 26.7986 7.95137C26.9276 8.0803 27 8.25516 27 8.4375V22.2453C27 22.3359 26.9821 22.4257 26.9472 22.5094C26.9124 22.5931 26.8613 22.6691 26.797 22.733C26.7327 22.7969 26.6564 22.8475 26.5724 22.8817C26.4885 22.916 26.3986 22.9334 26.3079 22.9328L19.2661 22.8851C18.9018 22.8825 18.5406 22.9523 18.2036 23.0905C17.8665 23.2286 17.5602 23.4324 17.3026 23.6899L16.4868 24.5067C16.4229 24.5706 16.3471 24.6212 16.2637 24.6558C16.1802 24.6904 16.0908 24.7082 16.0005 24.7082C15.9101 24.7082 15.8207 24.6904 15.7373 24.6558C15.6538 24.6212 15.578 24.5706 15.5142 24.5067L14.6873 23.6808C14.1717 23.165 13.4724 22.8752 12.7431 22.875H5.6875C5.50516 22.875 5.3303 22.8026 5.20136 22.6736C5.07243 22.5447 5 22.3698 5 22.1875V8.4375ZM15.3097 11.8723C15.309 11.1434 15.019 10.4446 14.5033 9.92949C13.9877 9.41435 13.2886 9.125 12.5598 9.125H6.375V21.5H12.7431C13.6765 21.5001 14.5823 21.8168 15.3125 22.3983L15.3097 11.8723ZM16.6875 22.4002V11.875C16.6875 11.1457 16.9772 10.4462 17.493 9.93046C18.0087 9.41473 18.7082 9.125 19.4375 9.125H25.625V21.5532L19.2753 21.5101C18.3365 21.5037 17.4237 21.8177 16.6875 22.4002Z" fill="#0055BF"/>
</svg>
