<svg width="32" height="32" viewBox="0 0 32 32" fill="none" xmlns="http://www.w3.org/2000/svg">
<rect width="32" height="32" rx="4" fill="#EEFCFF"/>
<g clip-path="url(#clip0_2984_54250)">
<path fill-rule="evenodd" clip-rule="evenodd" d="M18.75 16C18.75 17.5187 17.5187 18.75 16 18.75C14.4812 18.75 13.25 17.5187 13.25 16C13.25 14.4812 14.4812 13.25 16 13.25C17.5187 13.25 18.75 14.4812 18.75 16ZM17.375 16C17.375 16.7594 16.7594 17.375 16 17.375C15.2406 17.375 14.625 16.7594 14.625 16C14.625 15.2406 15.2406 14.625 16 14.625C16.7594 14.625 17.375 15.2406 17.375 16Z" fill="#0055BF"/>
<path fill-rule="evenodd" clip-rule="evenodd" d="M16 5.91663C10.4312 5.91663 5.91663 10.4312 5.91663 16C5.91663 21.5687 10.4312 26.0833 16 26.0833C21.5687 26.0833 26.0833 21.5687 26.0833 16C26.0833 10.4312 21.5687 5.91663 16 5.91663ZM9.84224 9.84224C11.4754 8.20911 13.6904 7.29163 16 7.29163C18.3096 7.29163 20.5246 8.20911 22.1577 9.84224C23.7908 11.4754 24.7083 13.6904 24.7083 16C24.7083 18.3096 23.7908 20.5246 22.1577 22.1577C20.5246 23.7908 18.3096 24.7083 16 24.7083C13.6904 24.7083 11.4754 23.7908 9.84224 22.1577C8.20911 20.5246 7.29163 18.3096 7.29163 16C7.29163 13.6904 8.20911 11.4754 9.84224 9.84224Z" fill="#0055BF"/>
</g>
<defs>
<clipPath id="clip0_2984_54250">
<rect width="22" height="22" fill="white" transform="translate(5 5)"/>
</clipPath>
</defs>
</svg>
