<svg width="22" height="22" viewBox="0 0 22 22" fill="none" xmlns="http://www.w3.org/2000/svg">
<path fill-rule="evenodd" clip-rule="evenodd" d="M14 11C14 12.6569 12.6569 14 11 14C9.34315 14 8 12.6569 8 11C8 9.34315 9.34315 8 11 8C12.6569 8 14 9.34315 14 11ZM12.5 11C12.5 11.8284 11.8284 12.5 11 12.5C10.1716 12.5 9.5 11.8284 9.5 11C9.5 10.1716 10.1716 9.5 11 9.5C11.8284 9.5 12.5 10.1716 12.5 11Z" fill="#CB1537"/>
<path fill-rule="evenodd" clip-rule="evenodd" d="M11 0C4.925 0 0 4.925 0 11C0 17.075 4.925 22 11 22C17.075 22 22 17.075 22 11C22 4.925 17.075 0 11 0ZM4.28249 4.28249C6.06408 2.50089 8.48044 1.5 11 1.5C13.5196 1.5 15.9359 2.50089 17.7175 4.28249C19.4991 6.06408 20.5 8.48044 20.5 11C20.5 13.5196 19.4991 15.9359 17.7175 17.7175C15.9359 19.4991 13.5196 20.5 11 20.5C8.48044 20.5 6.06408 19.4991 4.28249 17.7175C2.50089 15.9359 1.5 13.5196 1.5 11C1.5 8.48044 2.50089 6.06408 4.28249 4.28249Z" fill="#CB1537"/>
</svg>
