<svg width="32" height="32" viewBox="0 0 32 32" fill="none" xmlns="http://www.w3.org/2000/svg">
<rect width="32" height="32" rx="4" fill="#EEFCFF"/>
<path d="M11.8598 9.8212C10.8107 9.93845 9.97102 10.7664 9.84964 11.8042C9.52359 14.5919 9.52359 17.4081 9.84964 20.1958C9.97102 21.2336 10.8107 22.0616 11.8598 22.1788C14.5885 22.4838 17.4115 22.4838 20.1403 22.1788C21.1894 22.0616 22.0291 21.2336 22.1505 20.1958C22.3847 18.1928 22.4507 16.175 22.3483 14.1637C22.3456 14.1118 22.365 14.0611 22.4018 14.0243L23.354 13.0721C23.4642 12.9619 23.6526 13.0308 23.6643 13.1862C23.844 15.5741 23.7946 17.9748 23.5161 20.3556C23.3192 22.0395 21.9672 23.3582 20.293 23.5453C17.4628 23.8617 14.5373 23.8617 11.7071 23.5453C10.0329 23.3582 8.68089 22.0395 8.48395 20.3556C8.14549 17.4617 8.14549 14.5383 8.48395 11.6445C8.68089 9.96058 10.0329 8.64182 11.7071 8.45471C14.5373 8.13839 17.4628 8.13839 20.293 8.45471C20.8827 8.52061 21.4324 8.72689 21.9057 9.04005C21.9988 9.10168 22.0081 9.23261 21.9291 9.31158L21.1931 10.0476C21.1329 10.1078 21.0395 10.1179 20.9645 10.0777C20.7139 9.94339 20.4354 9.85418 20.1403 9.8212C17.4115 9.51622 14.5885 9.51622 11.8598 9.8212Z" fill="#0055BF"/>
<path d="M24.2778 10.5278C24.5463 10.2593 24.5463 9.82404 24.2778 9.55555C24.0093 9.28707 23.574 9.28707 23.3056 9.55555L15.5417 17.3194L13.2778 15.0556C13.0093 14.7871 12.574 14.7871 12.3056 15.0556C12.0371 15.324 12.0371 15.7593 12.3056 16.0278L15.0556 18.7778C15.324 19.0463 15.7593 19.0463 16.0278 18.7778L24.2778 10.5278Z" fill="#0055BF"/>
</svg>
