<svg width="19" height="18" viewBox="0 0 19 18" fill="none" xmlns="http://www.w3.org/2000/svg">
<path d="M4.48334 2.25948C3.33891 2.38738 2.42286 3.29063 2.29045 4.42274C1.93476 7.46389 1.93476 10.5361 2.29045 13.5773C2.42286 14.7094 3.33891 15.6126 4.48334 15.7405C7.46017 16.0732 10.5398 16.0732 13.5166 15.7405C14.6611 15.6126 15.5771 14.7094 15.7095 13.5773C15.9651 11.3921 16.037 9.19092 15.9253 6.99674C15.9224 6.94008 15.9436 6.88481 15.9837 6.84469L17.0225 5.80591C17.1427 5.68568 17.3482 5.76086 17.3609 5.93042C17.557 8.53534 17.5031 11.1544 17.1994 13.7515C16.9845 15.5885 15.5096 17.0271 13.6832 17.2313C10.5957 17.5763 7.40429 17.5763 4.31673 17.2313C2.49035 17.0271 1.01545 15.5885 0.800605 13.7515C0.431374 10.5946 0.431374 7.40541 0.800605 4.24849C1.01545 2.41153 2.49035 0.972883 4.31673 0.768758C7.40429 0.423679 10.5957 0.423679 13.6832 0.768758C14.3265 0.840652 14.9261 1.06568 15.4425 1.40732C15.5441 1.47454 15.5542 1.61738 15.468 1.70353L14.6652 2.50641C14.5995 2.57208 14.4976 2.58313 14.4158 2.53926C14.1423 2.39277 13.8385 2.29545 13.5166 2.25948C10.5398 1.92677 7.46017 1.92677 4.48334 2.25948Z" fill="#0055BF"/>
<path d="M18.0303 3.03034C18.3232 2.73744 18.3232 2.26257 18.0303 1.96968C17.7374 1.67678 17.2625 1.67678 16.9696 1.96968L8.49997 10.4393L6.0303 7.96968C5.73741 7.67678 5.26253 7.67678 4.96964 7.96968C4.67675 8.26257 4.67675 8.73744 4.96964 9.03034L7.96964 12.0303C8.26253 12.3232 8.73741 12.3232 9.0303 12.0303L18.0303 3.03034Z" fill="#0055BF"/>
</svg>
