<svg width="32" height="32" viewBox="0 0 32 32" fill="none" xmlns="http://www.w3.org/2000/svg">
<rect width="32" height="32" rx="4" fill="#EEFCFF"/>
<path fill-rule="evenodd" clip-rule="evenodd" d="M17.8903 10.1518C15.7221 9.92403 13.5369 9.90708 11.3655 10.1012L9.91549 10.2309C8.71727 10.338 7.74914 11.2534 7.57512 12.4437C7.23033 14.8021 7.23033 17.198 7.57512 19.5563C7.74914 20.7467 8.71728 21.6621 9.91549 21.7692L11.3655 21.8988C13.5369 22.093 15.7221 22.076 17.8903 21.8482L18.4474 21.7897C19.5878 21.6699 20.5105 20.821 20.7327 19.7066L23.5257 21.1905C23.7293 21.2987 23.9736 21.2976 24.1763 21.1875C24.379 21.0775 24.5129 20.8731 24.5331 20.6434L24.5559 20.3832C24.8116 17.4667 24.8116 14.5334 24.5559 11.6169L24.5331 11.3567C24.5129 11.1269 24.379 10.9226 24.1763 10.8125C23.9736 10.7025 23.7293 10.7014 23.5257 10.8096L20.7327 12.2934C20.5105 11.1791 19.5878 10.3302 18.4474 10.2104L17.8903 10.1518ZM11.4879 11.4708C13.5708 11.2845 15.6669 11.3008 17.7466 11.5193L18.3037 11.5778C18.8644 11.6367 19.3137 12.0683 19.3953 12.626C19.7224 14.8635 19.7224 17.1366 19.3952 19.374C19.3137 19.9318 18.8644 20.3633 18.3037 20.4222L17.7467 20.4808C15.6669 20.6993 13.5708 20.7155 11.4879 20.5293L10.0379 20.3997C9.4736 20.3492 9.01762 19.9181 8.93565 19.3574C8.61015 17.131 8.61015 14.8691 8.93565 12.6427C9.01762 12.082 9.4736 11.6509 10.0379 11.6004L11.4879 11.4708ZM20.9133 13.7545C21.0497 15.2484 21.0497 16.7517 20.9133 18.2456L23.248 19.486C23.4142 17.165 23.4142 14.8351 23.248 12.5141L20.9133 13.7545Z" fill="#0055BF"/>
</svg>
