<svg width="20" height="14" viewBox="0 0 20 14" fill="none" xmlns="http://www.w3.org/2000/svg">
<path fill-rule="evenodd" clip-rule="evenodd" d="M12.0622 0.620153C9.69684 0.371632 7.313 0.353145 4.94412 0.56495L3.36233 0.706381C2.05519 0.823255 0.999044 1.82185 0.809196 3.12041C0.433067 5.69313 0.433067 8.30688 0.809196 10.8796C0.999044 12.1782 2.05519 13.1768 3.36233 13.2936L4.94412 13.4351C7.313 13.6469 9.69684 13.6284 12.0622 13.3799L12.6699 13.316C13.914 13.1853 14.9206 12.2592 15.1629 11.0436L18.2098 12.6623C18.432 12.7804 18.6985 12.7792 18.9196 12.6591C19.1407 12.539 19.2868 12.3161 19.3088 12.0655L19.3337 11.7817C19.6126 8.6 19.6126 5.40002 19.3337 2.21835L19.3088 1.93451C19.2868 1.68389 19.1407 1.46098 18.9196 1.34092C18.6985 1.22086 18.432 1.21965 18.2098 1.33768L15.1629 2.95644C14.9206 1.74079 13.914 0.814724 12.6699 0.684006L12.0622 0.620153ZM5.0777 2.05899C7.34996 1.85582 9.63658 1.87356 11.9054 2.11194L12.5131 2.17579C13.1247 2.24005 13.6149 2.71079 13.7039 3.31929C14.0607 5.76013 14.0607 8.23989 13.7039 10.6807C13.6149 11.2892 13.1247 11.76 12.5131 11.8242L11.9054 11.8881C9.63658 12.1265 7.34997 12.1442 5.0777 11.941L3.49592 11.7996C2.88027 11.7445 2.38283 11.2742 2.29342 10.6626C1.93833 8.23378 1.93833 5.76623 2.29342 3.3374C2.38283 2.7258 2.88027 2.25547 3.49592 2.20042L5.0777 2.05899ZM15.3599 4.55034C15.5087 6.18006 15.5087 7.81996 15.3599 9.44968L17.9069 10.8029C18.0882 8.27087 18.0882 5.72914 17.9069 3.19714L15.3599 4.55034Z" fill="#0055BF"/>
</svg>
