<svg width="32" height="32" viewBox="0 0 32 32" fill="none" xmlns="http://www.w3.org/2000/svg">
<g filter="url(#filter0_b_4089_3594)">
<rect width="32" height="32" rx="16" fill="#001C38" fill-opacity="0.65"/>
<path fill-rule="evenodd" clip-rule="evenodd" d="M19.8277 8.85585C20.0663 8.61737 20.3899 8.4834 20.7273 8.4834C21.0647 8.4834 21.3883 8.61737 21.6269 8.85585L23.5077 10.7366C23.7462 10.9752 23.8801 11.2988 23.8801 11.6362C23.8801 11.9736 23.7462 12.2972 23.5077 12.5359L21.4764 14.5671L21.4677 14.5766L13.5928 22.0929C13.4489 22.2305 13.2748 22.3324 13.0844 22.3904L9.06767 23.6122C8.9732 23.6408 8.87275 23.6432 8.77702 23.6192C8.68129 23.5951 8.59387 23.5456 8.52408 23.4758C8.45429 23.406 8.40474 23.3186 8.38072 23.2229C8.3567 23.1271 8.3591 23.0267 8.38767 22.9322L9.6044 18.9322C9.66821 18.7229 9.78494 18.5335 9.94331 18.3824L17.8008 10.882L19.8277 8.85585ZM18.1731 12.0348L10.6968 19.1715C10.674 19.193 10.6572 19.2201 10.648 19.25L9.72876 22.2711L12.7666 21.3468C12.7939 21.3384 12.8188 21.3237 12.8393 21.3039L20.3106 14.1722L18.1724 12.0348H18.1731ZM21.0909 13.4108L22.7368 11.7657C22.7537 11.7488 22.7671 11.7287 22.7763 11.7066C22.7855 11.6845 22.7902 11.6609 22.7902 11.6369C22.7902 11.613 22.7855 11.5893 22.7763 11.5673C22.7671 11.5452 22.7537 11.5251 22.7368 11.5082L20.856 9.62749C20.8391 9.61056 20.8191 9.59712 20.797 9.58796C20.7749 9.57879 20.7512 9.57407 20.7273 9.57407C20.7034 9.57407 20.6797 9.57879 20.6576 9.58796C20.6355 9.59712 20.6155 9.61056 20.5986 9.62749L18.9535 11.2726L21.0909 13.4108Z" fill="white"/>
</g>
<defs>
<filter id="filter0_b_4089_3594" x="-8.72727" y="-8.72727" width="49.4545" height="49.4545" filterUnits="userSpaceOnUse" color-interpolation-filters="sRGB">
<feFlood flood-opacity="0" result="BackgroundImageFix"/>
<feGaussianBlur in="BackgroundImageFix" stdDeviation="4.36364"/>
<feComposite in2="SourceAlpha" operator="in" result="effect1_backgroundBlur_4089_3594"/>
<feBlend mode="normal" in="SourceGraphic" in2="effect1_backgroundBlur_4089_3594" result="shape"/>
</filter>
</defs>
</svg>
