<svg width="18" height="19" viewBox="0 0 18 19" fill="none" xmlns="http://www.w3.org/2000/svg">
<path fill-rule="evenodd" clip-rule="evenodd" d="M8.5231 2.54646C8.8585 1.79945 8.2163 0.998691 7.4261 1.13818C3.2059 1.88314 -3.8147e-06 5.5666 -3.8147e-06 10.0008C-3.8147e-06 14.9714 4.0295 19.0008 9 19.0008C13.4343 19.0008 17.1177 15.795 17.8627 11.5748C18.0022 10.7845 17.2014 10.1424 16.4544 10.4778C15.7065 10.8135 14.8765 11.0008 14 11.0008C10.6863 11.0008 8 8.31453 8 5.00085C8 4.12442 8.1873 3.29441 8.5231 2.54646ZM6.1191 3.61898C6.0408 4.06819 6 4.52998 6 5.00085C6 9.41913 9.5818 13.0008 14 13.0008C14.4709 13.0008 14.9327 12.96 15.3819 12.8818C14.2837 15.3107 11.8385 17.0008 9 17.0008C5.1341 17.0008 2 13.8668 2 10.0008C2 7.16235 3.6902 4.71723 6.1191 3.61898ZM15.4352 5.71646L15.3714 5.85579C15.0987 6.42009 14.6689 6.89378 14.134 7.22007L14.0347 7.27828C13.9885 7.30424 13.9885 7.3707 14.0347 7.39666L14.134 7.45487C14.6689 7.78116 15.0987 8.25483 15.3714 8.81913L15.4352 8.95843C15.4602 9.01463 15.5399 9.01463 15.5649 8.95843L15.6287 8.81913C15.9014 8.25483 16.3311 7.78116 16.8661 7.45487L16.9654 7.39666C17.0116 7.3707 17.0116 7.30424 16.9654 7.27828L16.8661 7.22007C16.3311 6.89378 15.9014 6.42009 15.6287 5.85579L15.5649 5.71646C15.5399 5.66026 15.4602 5.66026 15.4352 5.71646ZM12.6034 0.858111C12.5636 0.768651 12.4366 0.768651 12.3969 0.858111L12.2954 1.07987C11.8612 1.97809 11.1773 2.73208 10.3257 3.25145L10.1676 3.3441C10.0942 3.38542 10.0942 3.49121 10.1676 3.53253L10.3257 3.62518C11.1773 4.14455 11.8612 4.89854 12.2954 5.79676C12.3308 5.86997 12.3639 5.94422 12.3969 6.01853C12.4366 6.10798 12.5636 6.10798 12.6034 6.01853L12.7048 5.79676C13.139 4.89854 13.823 4.14455 14.6745 3.62518L14.8326 3.53253C14.9061 3.49121 14.9061 3.38542 14.8326 3.3441L14.6745 3.25145C13.823 2.73208 13.139 1.97809 12.7048 1.07987L12.6034 0.858111Z" fill="#1B72C0"/>
</svg>
